<svg id="svg" version="1.1" xmlns="http://www.w3.org/2000/svg" xmlns:xlink="http://www.w3.org/1999/xlink" width="400" height="400" viewBox="0, 0, 400,400"><g id="svgg"><path id="path0" d="M200.000 16.792 C 199.999 16.860,200.000 47.344,200.000 84.532 L 200.001 152.147 198.067 153.074 C 197.003 153.583,196.092 154.000,196.042 154.000 C 195.957 154.000,193.773 154.979,191.583 155.999 C 191.033 156.256,190.208 156.633,189.750 156.838 C 189.292 157.043,188.392 157.456,187.750 157.755 C 187.108 158.055,185.421 158.823,184.000 159.462 C 182.579 160.102,180.967 160.830,180.417 161.082 C 179.867 161.333,178.142 162.123,176.583 162.836 C 175.025 163.550,172.550 164.675,171.083 165.336 C 169.617 165.998,167.929 166.763,167.333 167.037 C 166.737 167.311,166.025 167.632,165.750 167.751 C 165.475 167.870,164.725 168.209,164.083 168.504 C 163.442 168.799,161.304 169.773,159.333 170.668 C 157.362 171.563,155.262 172.519,154.667 172.792 C 154.071 173.066,153.208 173.458,152.750 173.665 C 151.249 174.341,148.269 175.693,147.333 176.123 C 146.829 176.354,145.629 176.901,144.667 177.337 C 140.246 179.341,140.570 179.193,136.333 181.133 C 134.546 181.952,132.708 182.790,132.250 182.997 C 131.792 183.203,130.179 183.930,128.667 184.613 C 127.154 185.296,125.692 185.956,125.417 186.080 C 125.142 186.204,124.178 186.649,123.276 187.069 C 122.374 187.489,121.610 187.833,121.578 187.833 C 121.546 187.833,120.811 188.167,119.945 188.574 C 119.079 188.982,117.431 189.731,116.284 190.238 C 115.136 190.746,113.534 191.471,112.724 191.849 C 111.913 192.227,109.600 193.285,107.583 194.200 C 105.567 195.116,103.366 196.120,102.693 196.432 C 102.021 196.744,101.441 197.000,101.405 197.000 C 101.369 197.000,100.682 197.309,99.878 197.686 C 98.250 198.451,92.996 200.857,91.833 201.371 C 91.421 201.553,90.455 201.995,89.688 202.353 C 88.920 202.711,88.113 203.049,87.895 203.104 C 87.292 203.255,87.269 203.458,87.823 203.745 C 88.099 203.887,88.591 204.185,88.918 204.407 C 89.244 204.628,89.734 204.858,90.007 204.918 C 90.280 204.978,90.460 205.096,90.408 205.180 C 90.356 205.264,90.396 205.333,90.497 205.333 C 90.598 205.333,90.771 205.410,90.882 205.504 C 91.226 205.795,93.833 207.325,93.833 207.235 C 93.833 207.188,94.077 207.333,94.375 207.558 C 94.860 207.923,99.118 210.500,99.236 210.500 C 99.262 210.500,99.951 210.908,100.767 211.407 C 103.337 212.980,105.120 214.000,105.299 214.000 C 105.394 214.000,105.497 214.062,105.528 214.138 C 105.596 214.307,107.623 215.500,107.842 215.500 C 107.929 215.500,108.000 215.579,108.000 215.677 C 108.000 215.774,108.075 215.807,108.167 215.750 C 108.258 215.693,108.333 215.725,108.333 215.820 C 108.333 215.916,108.521 216.041,108.750 216.098 C 108.979 216.156,109.167 216.265,109.167 216.340 C 109.167 216.416,109.335 216.530,109.542 216.594 C 109.748 216.658,110.141 216.869,110.415 217.064 C 111.453 217.798,113.649 219.062,114.083 219.174 C 114.175 219.198,114.325 219.311,114.417 219.427 C 114.508 219.542,114.978 219.839,115.460 220.086 C 115.942 220.334,116.378 220.604,116.430 220.688 C 116.481 220.771,116.593 220.796,116.678 220.743 C 116.764 220.690,116.833 220.731,116.833 220.833 C 116.833 220.936,116.900 220.978,116.983 220.927 C 117.065 220.877,117.175 220.947,117.227 221.084 C 117.280 221.221,117.438 221.333,117.578 221.333 C 117.718 221.333,117.833 221.396,117.833 221.473 C 117.833 221.550,118.040 221.707,118.292 221.821 C 118.544 221.936,119.837 222.679,121.167 223.472 C 124.348 225.371,124.512 225.467,125.000 225.706 C 125.229 225.818,125.454 225.953,125.500 226.007 C 125.667 226.201,127.632 227.333,127.802 227.333 C 127.898 227.333,128.087 227.444,128.223 227.580 C 128.358 227.715,128.795 228.000,129.193 228.213 C 129.880 228.580,130.119 228.722,131.500 229.584 C 132.027 229.913,132.972 230.466,135.167 231.731 C 135.579 231.969,136.160 232.290,136.458 232.446 C 136.756 232.601,137.000 232.777,137.000 232.836 C 137.000 232.895,137.394 233.124,137.875 233.346 C 138.356 233.568,138.849 233.843,138.970 233.958 C 139.091 234.073,139.298 234.167,139.429 234.167 C 139.560 234.167,139.667 234.226,139.667 234.298 C 139.667 234.423,140.729 235.094,142.000 235.772 C 142.321 235.943,142.608 236.140,142.639 236.208 C 142.669 236.277,142.838 236.333,143.014 236.333 C 143.190 236.333,143.333 236.408,143.333 236.500 C 143.333 236.592,143.446 236.667,143.583 236.667 C 143.721 236.667,143.833 236.746,143.833 236.843 C 143.833 236.940,143.902 236.977,143.986 236.925 C 144.070 236.874,144.163 236.888,144.194 236.957 C 144.271 237.131,145.667 238.029,145.667 237.904 C 145.667 237.849,145.897 237.998,146.179 238.235 C 146.461 238.472,146.768 238.667,146.861 238.667 C 146.955 238.667,147.220 238.816,147.452 238.998 C 147.683 239.180,147.939 239.288,148.020 239.238 C 148.100 239.188,148.167 239.213,148.167 239.294 C 148.167 239.465,151.528 241.500,151.811 241.500 C 151.915 241.500,152.000 241.557,152.000 241.627 C 152.000 241.697,152.140 241.828,152.311 241.919 C 152.482 242.009,153.007 242.291,153.477 242.544 C 153.947 242.797,154.366 242.985,154.408 242.961 C 154.451 242.936,154.590 243.059,154.718 243.234 C 154.864 243.434,155.029 243.501,155.167 243.416 C 155.300 243.334,155.344 243.347,155.280 243.451 C 155.223 243.544,155.474 243.754,155.838 243.919 C 156.202 244.083,156.500 244.265,156.500 244.324 C 156.500 244.382,156.911 244.639,157.414 244.893 C 157.916 245.148,158.371 245.427,158.425 245.514 C 158.479 245.601,158.593 245.629,158.678 245.576 C 158.764 245.523,158.833 245.560,158.833 245.657 C 158.833 245.754,158.937 245.833,159.063 245.833 C 159.189 245.833,159.385 245.944,159.497 246.080 C 159.610 246.215,159.900 246.428,160.143 246.553 C 160.385 246.677,160.977 247.014,161.458 247.302 C 161.940 247.589,162.333 247.786,162.333 247.739 C 162.333 247.692,162.480 247.788,162.658 247.952 C 162.837 248.116,163.418 248.473,163.950 248.746 C 164.482 249.018,165.016 249.337,165.137 249.454 C 165.258 249.571,165.464 249.667,165.595 249.667 C 165.726 249.667,165.833 249.742,165.833 249.833 C 165.833 249.925,165.946 250.000,166.083 250.000 C 166.221 250.000,166.333 250.075,166.333 250.167 C 166.333 250.258,166.483 250.333,166.667 250.333 C 166.850 250.333,167.000 250.400,167.000 250.483 C 167.000 250.565,167.281 250.773,167.625 250.946 C 167.969 251.118,168.683 251.539,169.212 251.880 C 169.740 252.221,170.208 252.500,170.250 252.500 C 170.292 252.500,170.741 252.765,171.247 253.089 C 171.753 253.413,172.293 253.726,172.447 253.785 C 172.601 253.844,173.100 254.138,173.557 254.439 C 174.014 254.740,174.451 254.947,174.527 254.900 C 174.604 254.852,174.667 254.891,174.667 254.986 C 174.667 255.202,175.588 255.690,175.729 255.549 C 175.786 255.491,175.833 255.527,175.833 255.627 C 175.833 255.728,176.490 256.196,177.292 256.668 C 178.094 257.140,179.162 257.780,179.667 258.090 C 180.171 258.400,180.677 258.657,180.792 258.660 C 180.906 258.664,181.000 258.754,181.000 258.861 C 181.000 258.968,181.047 259.009,181.104 258.952 C 181.161 258.895,181.442 259.024,181.729 259.239 C 182.016 259.454,182.697 259.866,183.244 260.155 C 183.791 260.444,184.353 260.784,184.494 260.910 C 184.635 261.037,184.857 261.165,184.988 261.195 C 185.119 261.225,185.365 261.362,185.534 261.500 C 185.856 261.762,187.451 262.690,188.167 263.032 C 188.396 263.141,188.721 263.348,188.890 263.491 C 189.267 263.810,191.250 264.934,191.875 265.183 C 192.127 265.284,192.333 265.438,192.333 265.526 C 192.333 265.614,192.408 265.640,192.500 265.583 C 192.592 265.527,192.667 265.544,192.667 265.622 C 192.667 265.743,193.219 266.098,195.247 267.280 C 195.432 267.387,195.846 267.609,196.167 267.772 C 196.487 267.935,197.106 268.316,197.542 268.618 C 197.977 268.921,198.333 269.127,198.333 269.075 C 198.333 269.023,198.558 269.114,198.833 269.277 C 199.108 269.439,199.333 269.631,199.333 269.703 C 199.333 269.775,199.446 269.833,199.583 269.833 C 199.805 269.833,199.833 263.196,199.833 211.093 C 199.833 175.963,199.894 152.315,199.985 152.259 C 200.069 152.208,200.500 152.346,200.943 152.567 C 201.387 152.787,202.950 153.508,204.417 154.168 C 205.883 154.828,207.458 155.543,207.917 155.756 C 208.375 155.970,210.175 156.794,211.917 157.589 C 214.705 158.860,217.458 160.107,225.500 163.743 C 226.646 164.261,227.883 164.822,228.250 164.990 C 229.803 165.703,230.902 166.203,233.500 167.379 C 235.012 168.064,236.737 168.852,237.333 169.130 C 237.929 169.408,239.617 170.177,241.083 170.839 C 242.550 171.501,245.512 172.849,247.667 173.834 C 249.821 174.820,251.958 175.794,252.417 175.998 C 253.763 176.599,264.136 181.322,265.500 181.954 C 266.188 182.273,268.137 183.155,269.833 183.914 C 272.814 185.249,277.949 187.582,279.833 188.457 C 280.337 188.691,281.650 189.290,282.750 189.787 C 285.622 191.086,285.392 190.982,289.667 192.922 C 291.821 193.900,293.958 194.872,294.417 195.083 C 294.875 195.295,296.450 196.008,297.917 196.669 C 299.383 197.330,301.858 198.457,303.417 199.174 C 309.863 202.140,312.421 203.279,312.495 203.216 C 312.538 203.179,312.492 203.096,312.393 203.033 C 312.293 202.969,312.159 202.748,312.095 202.542 C 312.030 202.335,311.908 202.167,311.822 202.167 C 311.737 202.167,311.667 202.060,311.667 201.929 C 311.667 201.798,311.569 201.591,311.449 201.470 C 311.329 201.349,311.181 201.137,311.119 201.000 C 311.058 200.862,310.818 200.450,310.588 200.083 C 310.358 199.717,310.120 199.304,310.060 199.167 C 310.000 199.029,309.798 198.748,309.613 198.542 C 309.427 198.335,309.327 198.167,309.390 198.167 C 309.524 198.167,308.666 196.808,308.418 196.628 C 308.326 196.560,308.307 196.504,308.377 196.503 C 308.519 196.500,307.656 195.116,307.458 195.028 C 307.390 194.997,307.333 194.866,307.333 194.736 C 307.333 194.606,307.258 194.500,307.167 194.500 C 307.075 194.500,307.000 194.408,307.000 194.296 C 307.000 194.115,305.231 191.045,305.005 190.833 C 304.956 190.787,304.804 190.525,304.666 190.250 C 304.426 189.768,303.809 188.762,303.543 188.417 C 303.472 188.325,303.317 188.063,303.199 187.833 C 302.656 186.782,302.471 186.500,302.324 186.500 C 302.238 186.500,302.185 186.436,302.208 186.358 C 302.249 186.221,300.984 184.024,299.792 182.160 C 299.472 181.660,299.219 181.200,299.230 181.138 C 299.241 181.077,299.093 180.852,298.901 180.638 C 298.710 180.425,298.267 179.725,297.918 179.083 C 297.568 178.442,296.956 177.408,296.558 176.786 C 296.159 176.165,295.833 175.626,295.833 175.590 C 295.833 175.553,295.544 175.087,295.190 174.553 C 294.836 174.020,294.494 173.413,294.428 173.206 C 294.363 172.998,294.240 172.872,294.155 172.924 C 294.070 172.977,294.000 172.879,294.000 172.708 C 294.000 172.536,293.869 172.246,293.708 172.062 C 293.548 171.879,293.161 171.249,292.849 170.663 C 292.537 170.077,292.215 169.519,292.134 169.424 C 292.052 169.328,291.498 168.425,290.903 167.417 C 290.307 166.408,289.523 165.107,289.160 164.525 C 288.797 163.943,288.500 163.443,288.500 163.415 C 288.500 163.387,288.026 162.588,287.447 161.640 C 286.868 160.692,286.235 159.654,286.040 159.333 C 285.846 159.012,285.626 158.673,285.552 158.579 C 285.477 158.485,285.267 158.111,285.083 157.749 C 284.900 157.388,284.619 156.958,284.458 156.796 C 284.298 156.633,284.209 156.500,284.261 156.500 C 284.313 156.500,284.213 156.294,284.038 156.042 C 283.864 155.790,283.668 155.471,283.604 155.333 C 283.540 155.196,283.396 154.932,283.285 154.747 C 283.174 154.562,282.787 153.905,282.424 153.288 C 282.061 152.671,281.700 152.167,281.622 152.167 C 281.544 152.167,281.521 152.100,281.572 152.019 C 281.622 151.938,281.551 151.778,281.415 151.665 C 281.278 151.552,281.167 151.388,281.167 151.302 C 281.167 151.215,280.993 150.906,280.780 150.614 C 280.568 150.322,280.212 149.727,279.989 149.292 C 279.766 148.856,279.528 148.500,279.459 148.500 C 279.390 148.500,279.333 148.420,279.333 148.322 C 279.333 148.224,279.117 147.829,278.852 147.444 C 278.587 147.059,278.089 146.221,277.745 145.580 C 277.401 144.940,277.074 144.379,277.018 144.333 C 276.962 144.287,276.809 144.063,276.677 143.833 C 276.545 143.604,276.115 142.854,275.720 142.167 C 275.325 141.479,275.002 140.979,275.001 141.056 C 275.001 141.132,274.729 140.682,274.398 140.056 C 274.067 139.429,273.730 138.892,273.648 138.861 C 273.567 138.831,273.500 138.699,273.500 138.569 C 273.500 138.440,273.425 138.333,273.333 138.333 C 273.242 138.333,273.167 138.246,273.167 138.140 C 273.167 138.033,272.923 137.567,272.625 137.105 C 271.974 136.093,271.770 135.752,271.393 135.042 C 271.234 134.744,271.044 134.500,270.969 134.500 C 270.894 134.500,270.833 134.393,270.833 134.262 C 270.833 134.131,270.739 133.925,270.625 133.804 C 270.510 133.682,270.268 133.302,270.087 132.958 C 269.906 132.615,269.700 132.333,269.629 132.333 C 269.558 132.333,269.500 132.222,269.500 132.086 C 269.500 131.813,268.509 130.117,268.297 130.027 C 268.224 129.997,268.207 129.902,268.260 129.818 C 268.312 129.733,268.237 129.619,268.094 129.564 C 267.951 129.509,267.833 129.371,267.833 129.258 C 267.833 129.145,267.552 128.609,267.208 128.068 C 266.864 127.526,266.476 126.877,266.346 126.625 C 266.216 126.373,266.048 126.167,265.972 126.167 C 265.896 126.167,265.833 126.086,265.833 125.987 C 265.833 125.821,264.537 123.520,264.339 123.333 C 264.290 123.287,264.106 122.987,263.930 122.667 C 263.755 122.346,263.362 121.689,263.057 121.207 C 262.752 120.726,262.489 120.276,262.472 120.207 C 262.455 120.139,262.360 119.992,262.262 119.881 C 261.788 119.344,261.661 119.167,261.749 119.167 C 261.847 119.167,261.742 118.973,261.163 118.083 C 260.985 117.808,260.767 117.422,260.679 117.225 C 260.592 117.027,260.441 116.816,260.343 116.756 C 260.246 116.696,260.011 116.332,259.822 115.948 C 259.449 115.190,259.401 115.105,258.425 113.499 C 258.064 112.904,257.707 112.392,257.634 112.361 C 257.560 112.331,257.500 112.208,257.500 112.090 C 257.500 111.971,257.388 111.781,257.252 111.668 C 257.115 111.555,257.042 111.400,257.089 111.325 C 257.135 111.249,257.078 111.126,256.962 111.052 C 256.845 110.978,256.637 110.693,256.500 110.421 C 256.031 109.490,254.461 106.917,254.299 106.815 C 254.211 106.759,254.134 106.646,254.130 106.565 C 254.115 106.292,253.781 105.667,253.651 105.667 C 253.580 105.667,253.471 105.505,253.408 105.307 C 253.303 104.975,251.989 102.718,251.095 101.333 C 250.888 101.013,250.388 100.196,249.984 99.520 C 249.580 98.843,249.121 98.093,248.963 97.853 C 248.805 97.613,248.447 97.004,248.167 96.500 C 247.888 95.996,247.323 95.058,246.912 94.417 C 246.501 93.775,246.044 93.006,245.897 92.708 C 245.749 92.410,245.562 92.167,245.481 92.167 C 245.400 92.167,245.333 92.083,245.333 91.980 C 245.333 91.749,244.151 89.771,243.967 89.694 C 243.894 89.664,243.833 89.551,243.832 89.444 C 243.831 89.337,243.531 88.778,243.165 88.202 C 242.799 87.625,242.500 87.090,242.500 87.014 C 242.500 86.937,242.383 86.777,242.240 86.659 C 242.098 86.540,241.875 86.212,241.746 85.930 C 241.425 85.226,240.757 84.101,239.982 82.960 C 239.625 82.434,239.333 81.941,239.333 81.865 C 239.333 81.789,239.110 81.431,238.838 81.071 C 238.566 80.711,238.341 80.363,238.338 80.297 C 238.327 80.010,236.636 77.333,236.466 77.333 C 236.362 77.333,236.324 77.288,236.379 77.232 C 236.435 77.176,236.298 76.840,236.074 76.485 C 235.850 76.130,235.667 75.763,235.667 75.670 C 235.667 75.576,235.610 75.499,235.542 75.498 C 235.473 75.497,235.274 75.199,235.101 74.837 C 234.927 74.474,234.709 74.224,234.617 74.281 C 234.524 74.338,234.497 74.307,234.555 74.212 C 234.614 74.117,234.526 73.862,234.359 73.645 C 234.193 73.428,234.006 73.137,233.944 73.000 C 233.883 72.862,233.609 72.375,233.336 71.917 C 233.063 71.458,232.687 70.821,232.499 70.500 C 232.311 70.179,232.010 69.692,231.830 69.417 C 231.651 69.142,231.453 68.804,231.390 68.667 C 231.158 68.156,230.118 66.581,229.977 66.527 C 229.897 66.497,229.870 66.409,229.917 66.333 C 229.964 66.256,229.909 66.094,229.793 65.972 C 229.678 65.850,229.401 65.412,229.179 65.000 C 228.957 64.587,228.732 64.212,228.679 64.167 C 228.558 64.061,228.433 63.853,227.057 61.453 C 226.438 60.372,225.777 59.324,225.590 59.123 C 225.403 58.922,225.266 58.719,225.286 58.671 C 225.335 58.550,223.968 56.279,223.755 56.128 C 223.661 56.060,223.637 56.004,223.703 56.003 C 223.804 56.000,223.371 55.252,222.877 54.575 C 222.807 54.479,222.637 54.198,222.500 53.951 C 221.788 52.672,220.583 50.743,220.465 50.694 C 220.392 50.663,220.374 50.570,220.425 50.486 C 220.477 50.402,220.440 50.333,220.342 50.333 C 220.244 50.333,220.044 50.033,219.897 49.667 C 219.751 49.300,219.581 49.000,219.521 49.000 C 219.461 49.000,219.234 48.625,219.016 48.167 C 218.799 47.708,218.544 47.333,218.449 47.333 C 218.355 47.333,218.325 47.287,218.382 47.229 C 218.439 47.172,218.301 46.884,218.076 46.589 C 217.851 46.293,217.667 45.997,217.667 45.931 C 217.667 45.864,217.455 45.497,217.196 45.113 C 216.938 44.730,216.449 43.929,216.109 43.333 C 215.770 42.737,215.421 42.137,215.332 42.000 C 214.464 40.647,213.167 38.449,213.167 38.332 C 213.167 38.250,213.071 38.123,212.955 38.050 C 212.838 37.977,212.649 37.729,212.535 37.500 C 212.420 37.271,212.108 36.708,211.841 36.250 C 211.575 35.792,211.278 35.248,211.182 35.042 C 211.087 34.835,210.927 34.667,210.828 34.667 C 210.728 34.667,210.688 34.600,210.738 34.519 C 210.789 34.438,210.718 34.278,210.581 34.165 C 210.445 34.052,210.333 33.881,210.333 33.784 C 210.333 33.688,210.228 33.491,210.100 33.346 C 209.972 33.202,209.653 32.701,209.392 32.234 C 208.246 30.185,207.629 29.163,207.482 29.072 C 207.396 29.019,207.063 28.475,206.742 27.863 C 206.422 27.251,205.974 26.450,205.746 26.083 C 205.518 25.717,205.180 25.135,204.996 24.792 C 204.811 24.448,204.595 24.167,204.515 24.167 C 204.435 24.167,204.326 23.998,204.273 23.792 C 204.220 23.585,203.912 23.016,203.589 22.527 C 203.265 22.038,203.000 21.595,203.000 21.543 C 203.000 21.491,202.830 21.216,202.622 20.932 C 202.413 20.649,202.138 20.210,202.010 19.958 C 201.882 19.706,201.710 19.500,201.629 19.500 C 201.547 19.500,201.521 19.434,201.571 19.353 C 201.621 19.272,201.529 19.028,201.367 18.811 C 201.205 18.594,200.925 18.127,200.745 17.773 C 200.564 17.420,200.323 17.093,200.209 17.048 C 200.095 17.002,200.043 16.898,200.094 16.816 C 200.145 16.734,200.144 16.667,200.093 16.667 C 200.042 16.667,200.000 16.723,200.000 16.792 M311.912 224.892 C 311.731 225.017,311.133 225.366,310.583 225.668 C 309.442 226.296,308.787 226.697,308.667 226.843 C 308.621 226.898,308.358 227.059,308.083 227.201 C 306.574 227.981,305.631 228.565,305.553 228.768 C 305.505 228.895,305.404 228.960,305.329 228.914 C 305.209 228.840,304.216 229.338,303.750 229.706 C 303.254 230.098,302.351 230.628,302.287 230.565 C 302.247 230.525,302.119 230.606,302.003 230.746 C 301.887 230.886,301.697 231.000,301.581 231.000 C 301.464 231.000,301.324 231.117,301.269 231.261 C 301.214 231.404,301.093 231.474,301.001 231.417 C 300.909 231.360,300.833 231.406,300.833 231.518 C 300.833 231.630,300.784 231.673,300.724 231.613 C 300.663 231.552,300.525 231.576,300.417 231.666 C 300.309 231.756,299.777 232.064,299.235 232.351 C 298.693 232.637,298.137 232.961,298.000 233.072 C 297.751 233.272,296.532 233.993,294.167 235.341 C 293.479 235.732,292.579 236.284,292.167 236.566 C 291.754 236.848,291.379 237.081,291.333 237.084 C 291.287 237.086,291.137 237.162,291.000 237.253 C 290.542 237.553,290.088 237.822,289.667 238.041 C 289.224 238.271,287.704 239.168,286.693 239.795 C 286.358 240.002,285.910 240.246,285.698 240.336 C 285.487 240.426,285.359 240.574,285.415 240.664 C 285.474 240.759,285.407 240.787,285.259 240.730 C 285.091 240.666,285.000 240.725,285.000 240.899 C 285.000 241.046,284.944 241.150,284.875 241.129 C 284.679 241.071,283.000 241.877,283.000 242.030 C 283.000 242.105,282.906 242.170,282.792 242.173 C 282.677 242.177,282.171 242.435,281.667 242.747 C 280.777 243.298,280.269 243.597,278.001 244.904 C 277.406 245.247,276.881 245.578,276.835 245.639 C 276.788 245.700,276.412 245.918,276.000 246.124 C 275.181 246.533,274.630 246.861,274.500 247.017 C 274.454 247.072,273.967 247.365,273.417 247.669 C 272.867 247.973,272.154 248.371,271.833 248.555 C 271.512 248.739,270.912 249.079,270.500 249.311 C 270.087 249.543,269.725 249.793,269.694 249.867 C 269.664 249.940,269.533 250.000,269.403 250.000 C 269.273 250.000,269.167 250.079,269.167 250.177 C 269.167 250.274,269.092 250.307,269.000 250.250 C 268.908 250.193,268.833 250.268,268.833 250.417 C 268.833 250.565,268.764 250.644,268.680 250.592 C 268.596 250.540,268.425 250.591,268.301 250.707 C 268.177 250.822,267.965 250.941,267.829 250.971 C 267.694 251.001,267.558 251.094,267.528 251.179 C 267.497 251.264,267.366 251.333,267.236 251.333 C 267.106 251.333,267.000 251.396,267.000 251.472 C 267.000 251.549,266.906 251.613,266.792 251.615 C 266.581 251.619,263.321 253.473,263.167 253.677 C 263.121 253.737,262.821 253.920,262.500 254.083 C 262.179 254.246,261.879 254.426,261.833 254.482 C 261.739 254.597,261.285 254.859,260.279 255.377 C 259.897 255.574,259.492 255.851,259.380 255.993 C 259.269 256.134,259.175 256.191,259.172 256.120 C 259.169 256.048,258.735 256.266,258.208 256.603 C 257.681 256.940,256.838 257.438,256.333 257.710 C 255.829 257.983,255.379 258.258,255.333 258.322 C 255.287 258.387,254.908 258.603,254.491 258.802 C 254.073 259.002,253.585 259.301,253.407 259.467 C 253.229 259.633,253.008 259.778,252.917 259.790 C 252.620 259.829,251.167 260.732,251.167 260.878 C 251.167 260.956,251.100 260.979,251.020 260.929 C 250.939 260.879,250.683 260.987,250.452 261.169 C 250.220 261.351,249.949 261.500,249.849 261.500 C 249.749 261.500,249.667 261.575,249.667 261.667 C 249.667 261.758,249.568 261.833,249.448 261.833 C 249.328 261.833,249.061 261.991,248.854 262.183 C 248.648 262.375,248.389 262.546,248.278 262.562 C 248.168 262.578,247.816 262.746,247.497 262.935 C 247.178 263.124,246.223 263.682,245.375 264.175 C 244.527 264.669,243.833 265.136,243.833 265.213 C 243.833 265.290,243.767 265.312,243.686 265.262 C 243.604 265.211,243.445 265.282,243.332 265.419 C 243.219 265.555,243.040 265.667,242.934 265.667 C 242.829 265.667,242.364 265.916,241.901 266.221 C 241.439 266.525,240.940 266.821,240.793 266.877 C 240.646 266.934,240.201 267.188,239.804 267.442 C 238.994 267.961,238.520 268.240,237.473 268.811 C 237.075 269.027,236.525 269.370,236.250 269.571 C 235.975 269.772,235.506 270.035,235.208 270.155 C 234.910 270.276,234.667 270.431,234.667 270.501 C 234.667 270.571,234.535 270.672,234.375 270.726 C 234.215 270.780,233.971 270.896,233.833 270.984 C 232.624 271.758,229.677 273.500,229.576 273.500 C 229.505 273.500,229.202 273.688,228.902 273.917 C 228.601 274.146,228.271 274.333,228.168 274.333 C 228.065 274.333,228.034 274.420,228.099 274.526 C 228.172 274.644,228.145 274.673,228.029 274.601 C 227.925 274.537,227.633 274.628,227.379 274.804 C 227.125 274.979,226.167 275.553,225.250 276.078 C 222.285 277.779,220.257 278.994,219.958 279.248 C 219.798 279.385,219.667 279.461,219.667 279.417 C 219.667 279.373,219.160 279.647,218.542 280.027 C 217.923 280.406,217.080 280.905,216.669 281.136 C 216.258 281.366,215.822 281.655,215.699 281.777 C 215.576 281.900,215.369 282.000,215.238 282.000 C 215.107 282.000,215.000 282.088,215.000 282.194 C 215.000 282.301,214.952 282.341,214.894 282.283 C 214.835 282.224,214.580 282.324,214.326 282.505 C 214.073 282.686,213.819 282.833,213.762 282.833 C 213.706 282.833,213.342 283.035,212.955 283.281 C 211.334 284.309,210.560 284.778,210.167 284.968 C 209.938 285.079,209.525 285.319,209.250 285.500 C 208.975 285.681,208.637 285.881,208.500 285.944 C 208.362 286.007,208.213 286.106,208.167 286.163 C 208.039 286.323,206.840 287.037,206.000 287.454 C 205.258 287.823,204.661 288.172,204.500 288.333 C 204.454 288.379,204.139 288.567,203.801 288.750 C 203.462 288.933,202.506 289.477,201.677 289.958 C 200.848 290.440,200.112 290.833,200.043 290.833 C 199.974 290.833,199.935 311.507,199.958 336.775 C 199.991 373.326,199.957 382.769,199.792 382.973 C 199.654 383.144,199.649 383.191,199.777 383.114 C 199.884 383.050,200.001 383.087,200.037 383.195 C 200.073 383.304,200.284 383.098,200.505 382.738 C 200.725 382.378,201.040 381.938,201.203 381.760 C 201.366 381.583,201.501 381.358,201.503 381.260 C 201.505 381.163,201.764 380.789,202.078 380.428 C 202.392 380.068,202.616 379.720,202.576 379.654 C 202.535 379.589,202.595 379.499,202.709 379.454 C 202.823 379.410,203.291 378.821,203.748 378.145 C 204.505 377.026,205.463 375.678,205.807 375.246 C 205.882 375.152,206.082 374.852,206.252 374.579 C 206.422 374.306,206.711 373.915,206.893 373.708 C 207.076 373.502,207.171 373.333,207.106 373.333 C 207.041 373.333,207.147 373.165,207.343 372.958 C 207.849 372.424,208.667 371.222,208.667 371.012 C 208.667 370.914,208.734 370.833,208.816 370.833 C 208.898 370.833,209.217 370.470,209.524 370.025 C 211.470 367.212,211.840 366.663,211.841 366.589 C 211.841 366.544,212.008 366.331,212.212 366.114 C 212.416 365.898,212.996 365.106,213.500 364.354 C 214.004 363.602,214.623 362.751,214.875 362.463 C 215.127 362.175,215.333 361.884,215.333 361.815 C 215.333 361.747,215.430 361.591,215.547 361.470 C 215.901 361.106,216.530 360.167,216.420 360.167 C 216.364 360.167,216.490 359.994,216.701 359.783 C 216.911 359.572,217.383 358.953,217.750 358.408 C 218.117 357.863,218.462 357.379,218.517 357.333 C 218.572 357.287,218.813 356.950,219.053 356.583 C 219.292 356.217,219.716 355.617,219.993 355.250 C 220.271 354.883,220.597 354.376,220.719 354.122 C 220.840 353.869,220.990 353.712,221.053 353.775 C 221.115 353.838,221.167 353.810,221.167 353.713 C 221.167 353.616,221.504 353.078,221.916 352.518 C 222.329 351.958,222.632 351.500,222.591 351.500 C 222.549 351.500,222.703 351.312,222.933 351.082 C 223.164 350.851,223.298 350.578,223.233 350.473 C 223.167 350.365,223.188 350.327,223.282 350.385 C 223.374 350.442,223.554 350.285,223.681 350.036 C 223.808 349.787,224.063 349.419,224.248 349.217 C 224.432 349.016,224.580 348.791,224.577 348.717 C 224.573 348.644,224.708 348.433,224.875 348.250 C 225.406 347.669,226.771 345.770,227.062 345.208 C 227.216 344.910,227.410 344.667,227.493 344.667 C 227.576 344.667,227.693 344.514,227.752 344.328 C 227.811 344.141,228.018 343.841,228.211 343.661 C 228.405 343.481,228.508 343.333,228.442 343.333 C 228.375 343.333,228.400 343.240,228.497 343.125 C 228.593 343.010,228.830 342.729,229.023 342.500 C 229.215 342.271,229.849 341.368,230.432 340.495 C 231.014 339.621,231.643 338.743,231.829 338.543 C 232.015 338.344,232.167 338.116,232.167 338.036 C 232.167 337.957,232.354 337.715,232.583 337.500 C 232.813 337.285,233.000 337.009,233.000 336.888 C 233.000 336.766,233.075 336.667,233.167 336.667 C 233.258 336.667,233.333 336.554,233.333 336.417 C 233.333 336.279,233.397 336.167,233.474 336.167 C 233.551 336.167,233.756 335.904,233.928 335.583 C 234.101 335.262,234.289 335.000,234.345 335.000 C 234.401 335.000,234.589 334.737,234.762 334.417 C 234.934 334.096,235.134 333.833,235.205 333.833 C 235.275 333.833,235.333 333.721,235.333 333.583 C 235.333 333.446,235.396 333.333,235.472 333.333 C 235.548 333.333,235.864 332.940,236.174 332.458 C 236.483 331.977,236.834 331.484,236.952 331.363 C 237.070 331.242,237.167 331.092,237.167 331.030 C 237.167 330.968,237.354 330.699,237.584 330.432 C 237.813 330.166,238.000 329.890,238.000 329.819 C 238.000 329.748,238.096 329.591,238.213 329.470 C 238.628 329.040,241.530 324.991,241.775 324.500 C 241.912 324.225,242.077 324.000,242.141 324.000 C 242.205 324.000,242.399 323.737,242.572 323.417 C 242.744 323.096,242.953 322.833,243.036 322.833 C 243.119 322.833,243.140 322.758,243.083 322.667 C 243.027 322.575,243.064 322.500,243.167 322.500 C 243.269 322.500,243.312 322.433,243.261 322.351 C 243.210 322.269,243.270 322.162,243.395 322.115 C 243.641 322.020,245.007 320.130,245.517 319.179 C 245.691 318.854,245.833 318.654,245.833 318.733 C 245.833 318.813,245.983 318.688,246.167 318.455 C 246.350 318.221,246.500 317.955,246.500 317.863 C 246.500 317.770,246.562 317.669,246.638 317.639 C 246.818 317.566,249.167 314.198,249.167 314.012 C 249.167 313.933,249.279 313.826,249.417 313.773 C 249.554 313.720,249.667 313.569,249.667 313.436 C 249.667 313.303,249.730 313.169,249.807 313.139 C 249.974 313.073,251.167 311.389,251.167 311.219 C 251.167 311.154,251.346 310.910,251.566 310.676 C 251.967 310.247,252.292 309.798,253.859 307.500 C 254.328 306.813,254.777 306.225,254.856 306.194 C 254.935 306.164,255.000 306.033,255.000 305.903 C 255.000 305.773,255.075 305.667,255.167 305.667 C 255.258 305.667,255.333 305.552,255.333 305.411 C 255.333 305.271,255.446 305.113,255.583 305.060 C 255.721 305.008,255.833 304.894,255.833 304.809 C 255.833 304.723,255.983 304.492,256.167 304.295 C 256.350 304.098,256.500 303.839,256.500 303.719 C 256.500 303.598,256.563 303.500,256.640 303.500 C 256.718 303.500,256.922 303.237,257.095 302.917 C 257.268 302.596,257.455 302.333,257.511 302.333 C 257.567 302.333,258.005 301.752,258.484 301.042 C 258.964 300.331,259.577 299.450,259.847 299.083 C 260.118 298.717,260.618 298.004,260.960 297.500 C 261.302 296.996,261.732 296.409,261.916 296.195 C 262.100 295.981,262.250 295.751,262.250 295.683 C 262.250 295.615,262.380 295.430,262.539 295.271 C 262.789 295.021,263.442 294.108,264.333 292.761 C 264.886 291.926,265.247 291.412,265.337 291.333 C 265.607 291.097,267.500 288.339,267.500 288.182 C 267.500 288.082,267.556 287.998,267.625 287.996 C 267.770 287.991,268.668 286.810,268.667 286.625 C 268.667 286.556,268.798 286.361,268.958 286.192 C 269.119 286.023,269.400 285.675,269.583 285.419 C 271.040 283.389,271.524 282.709,271.707 282.439 C 271.822 282.268,272.048 281.956,272.208 281.746 C 272.369 281.536,272.500 281.311,272.500 281.246 C 272.500 281.181,272.728 280.855,273.006 280.522 C 273.801 279.570,273.833 279.524,273.833 279.340 C 273.833 279.245,273.899 279.167,273.980 279.167 C 274.060 279.167,274.220 278.940,274.335 278.663 C 274.450 278.386,274.630 278.104,274.735 278.038 C 274.915 277.924,275.170 277.582,276.720 275.377 C 277.057 274.896,277.333 274.390,277.333 274.252 C 277.333 274.113,277.441 274.000,277.572 274.000 C 277.703 274.000,277.858 273.850,277.916 273.668 C 277.974 273.485,278.115 273.241,278.230 273.126 C 278.590 272.763,280.000 270.773,280.000 270.627 C 280.000 270.551,280.155 270.322,280.345 270.119 C 280.939 269.483,282.868 266.774,283.099 266.250 C 283.221 265.975,283.324 265.825,283.328 265.917 C 283.332 266.008,283.558 265.746,283.830 265.333 C 284.609 264.153,284.736 263.973,284.958 263.741 C 285.073 263.622,285.167 263.443,285.167 263.345 C 285.167 263.247,285.236 263.167,285.320 263.167 C 285.404 263.167,285.645 262.885,285.855 262.542 C 286.065 262.198,286.334 261.818,286.452 261.696 C 286.570 261.575,286.667 261.369,286.667 261.238 C 286.667 261.107,286.728 261.000,286.802 261.000 C 286.968 261.000,287.641 260.108,287.704 259.804 C 287.729 259.683,287.875 259.490,288.028 259.375 C 288.181 259.261,288.479 258.886,288.690 258.542 C 288.901 258.198,289.357 257.542,289.703 257.083 C 290.049 256.625,290.332 256.168,290.333 256.067 C 290.333 255.967,290.494 255.742,290.691 255.567 C 290.991 255.301,291.629 254.424,292.417 253.195 C 292.508 253.052,292.716 252.784,292.878 252.599 C 293.040 252.415,293.490 251.776,293.878 251.180 C 294.266 250.584,294.751 249.915,294.955 249.694 C 295.160 249.472,295.289 249.230,295.242 249.154 C 295.196 249.079,295.294 248.944,295.460 248.855 C 295.627 248.765,295.873 248.480,296.007 248.221 C 296.140 247.962,296.325 247.665,296.417 247.562 C 296.508 247.459,296.883 246.949,297.250 246.429 C 298.510 244.644,299.989 242.583,300.133 242.412 C 300.212 242.318,300.419 242.018,300.593 241.746 C 300.767 241.473,300.951 241.213,301.002 241.167 C 301.191 240.996,302.681 238.833,302.608 238.833 C 302.567 238.833,302.750 238.601,303.016 238.316 C 303.281 238.032,303.462 237.740,303.417 237.667 C 303.372 237.594,303.443 237.493,303.576 237.443 C 303.708 237.392,303.941 237.110,304.093 236.815 C 304.245 236.521,304.545 236.091,304.759 235.859 C 304.974 235.628,305.116 235.386,305.075 235.320 C 305.035 235.255,305.119 235.157,305.262 235.102 C 305.404 235.047,305.474 234.927,305.417 234.835 C 305.360 234.742,305.389 234.667,305.481 234.667 C 305.621 234.667,307.833 231.595,307.833 231.399 C 307.833 231.363,307.965 231.189,308.125 231.012 C 308.565 230.527,308.746 230.289,309.091 229.746 C 309.263 229.473,309.660 228.931,309.972 228.542 C 310.285 228.152,310.475 227.831,310.395 227.828 C 310.315 227.825,310.364 227.731,310.504 227.620 C 310.801 227.382,312.290 225.306,312.436 224.926 C 312.559 224.607,312.348 224.593,311.912 224.892 " stroke="none" fill="#ececec" fill-rule="evenodd"></path><path id="path1" d="M200.000 211.167 L 200.000 270.006 200.863 269.568 C 201.338 269.328,201.831 269.026,201.958 268.899 C 202.086 268.771,202.255 268.667,202.334 268.667 C 202.671 268.667,204.167 267.594,204.169 267.350 C 204.171 267.119,204.193 267.117,204.328 267.330 C 204.459 267.538,204.561 267.504,204.960 267.122 C 205.221 266.872,205.600 266.667,205.801 266.667 C 206.002 266.667,206.167 266.607,206.167 266.533 C 206.167 266.460,206.517 266.216,206.944 265.992 C 208.282 265.290,208.333 265.257,208.333 265.127 C 208.333 265.057,208.429 265.000,208.545 265.000 C 208.662 265.000,209.018 264.786,209.337 264.524 C 209.656 264.262,210.104 263.989,210.333 263.917 C 210.563 263.846,210.929 263.648,211.147 263.477 C 211.366 263.306,211.647 263.167,211.772 263.167 C 211.898 263.167,212.000 263.104,212.000 263.027 C 212.000 262.888,212.891 262.416,212.945 262.526 C 212.960 262.558,213.154 262.414,213.374 262.207 C 213.594 262.000,213.825 261.881,213.887 261.943 C 213.949 262.005,214.000 261.926,214.000 261.768 C 214.000 261.610,214.069 261.523,214.153 261.575 C 214.238 261.627,214.420 261.557,214.558 261.418 C 214.696 261.280,214.913 261.167,215.040 261.167 C 215.167 261.167,215.422 261.026,215.606 260.854 C 215.791 260.682,216.105 260.489,216.304 260.426 C 216.504 260.363,216.667 260.228,216.667 260.128 C 216.667 260.027,216.715 259.992,216.773 260.051 C 216.893 260.171,217.833 259.661,217.833 259.477 C 217.833 259.412,218.096 259.273,218.417 259.167 C 218.737 259.061,219.000 258.905,219.000 258.820 C 219.000 258.736,219.094 258.664,219.208 258.660 C 219.323 258.657,219.829 258.395,220.333 258.080 C 220.838 257.764,221.416 257.432,221.620 257.342 C 221.823 257.252,222.080 257.034,222.191 256.856 C 222.302 256.679,222.481 256.567,222.589 256.608 C 222.696 256.650,223.227 256.396,223.767 256.045 C 224.308 255.693,225.031 255.260,225.375 255.082 C 225.719 254.903,226.000 254.695,226.000 254.619 C 226.000 254.543,226.075 254.527,226.167 254.583 C 226.258 254.640,226.335 254.626,226.336 254.552 C 226.338 254.477,226.788 254.194,227.336 253.922 C 227.885 253.651,228.333 253.369,228.333 253.297 C 228.333 253.225,228.442 253.167,228.575 253.167 C 228.708 253.167,228.893 253.035,228.987 252.875 C 229.080 252.715,229.159 252.638,229.162 252.705 C 229.164 252.772,229.410 252.677,229.708 252.494 C 230.006 252.312,230.381 252.117,230.542 252.062 C 230.702 252.006,230.836 251.876,230.839 251.772 C 230.850 251.382,231.326 250.926,231.519 251.119 C 231.718 251.318,232.347 251.032,233.905 250.031 C 234.357 249.741,234.859 249.461,235.021 249.410 C 235.194 249.355,235.278 249.216,235.224 249.075 C 235.173 248.942,235.208 248.833,235.302 248.833 C 235.395 248.833,235.497 248.905,235.528 248.992 C 235.574 249.125,237.493 248.028,238.094 247.527 C 238.191 247.445,238.547 247.247,238.885 247.087 C 239.223 246.927,239.501 246.673,239.503 246.523 C 239.504 246.334,239.544 246.311,239.632 246.450 C 239.717 246.583,239.841 246.596,240.004 246.491 C 240.220 246.352,240.220 246.312,240.000 246.156 C 239.800 246.014,239.822 245.998,240.107 246.078 C 240.323 246.138,240.566 246.076,240.721 245.922 C 240.861 245.782,241.045 245.667,241.129 245.667 C 241.382 245.667,242.394 245.122,242.740 244.801 C 242.917 244.635,243.161 244.500,243.281 244.500 C 243.402 244.500,243.500 244.425,243.500 244.333 C 243.500 244.242,243.556 244.185,243.625 244.208 C 243.694 244.231,244.012 244.083,244.333 243.879 C 244.907 243.514,245.212 243.330,245.792 243.001 C 246.675 242.499,247.771 241.838,247.917 241.719 C 248.008 241.645,248.365 241.453,248.708 241.294 C 249.052 241.135,249.333 240.929,249.333 240.836 C 249.333 240.743,249.445 240.667,249.582 240.667 C 249.718 240.667,250.338 240.348,250.960 239.958 C 251.581 239.569,252.369 239.107,252.711 238.932 C 253.053 238.757,253.333 238.551,253.333 238.474 C 253.333 238.397,253.450 238.333,253.593 238.333 C 253.749 238.333,253.805 238.255,253.732 238.138 C 253.652 238.008,253.702 237.978,253.885 238.048 C 254.034 238.105,254.266 238.043,254.400 237.910 C 254.534 237.776,254.735 237.667,254.847 237.667 C 254.960 237.667,255.284 237.491,255.568 237.276 C 255.851 237.061,256.533 236.637,257.083 236.334 C 257.633 236.032,258.262 235.645,258.481 235.475 C 258.699 235.305,258.981 235.167,259.106 235.167 C 259.231 235.167,259.333 235.087,259.333 234.990 C 259.333 234.893,259.408 234.860,259.500 234.917 C 259.592 234.973,259.667 234.948,259.667 234.861 C 259.667 234.774,259.837 234.660,260.045 234.608 C 260.253 234.556,260.583 234.365,260.777 234.183 C 260.972 234.002,261.177 233.899,261.232 233.954 C 261.288 234.010,261.333 233.977,261.333 233.881 C 261.333 233.784,261.483 233.666,261.667 233.618 C 261.850 233.570,262.001 233.393,262.003 233.224 C 262.005 232.963,262.030 232.955,262.172 233.167 C 262.319 233.385,262.367 233.381,262.561 233.128 C 262.683 232.969,262.832 232.887,262.891 232.947 C 262.951 233.007,263.000 232.968,263.000 232.861 C 263.000 232.754,263.107 232.667,263.237 232.667 C 263.368 232.667,263.702 232.476,263.979 232.242 C 264.257 232.008,264.651 231.785,264.855 231.746 C 265.059 231.707,265.269 231.616,265.321 231.545 C 265.374 231.474,265.619 231.312,265.867 231.184 C 266.114 231.057,266.339 230.801,266.367 230.614 C 266.394 230.428,266.512 230.257,266.629 230.234 C 266.746 230.211,266.765 230.230,266.671 230.276 C 266.438 230.392,266.455 230.667,266.695 230.667 C 266.803 230.667,267.009 230.562,267.154 230.433 C 267.298 230.305,267.791 229.993,268.247 229.739 C 268.704 229.486,269.178 229.179,269.301 229.056 C 269.424 228.934,269.631 228.833,269.762 228.833 C 269.893 228.833,270.000 228.758,270.000 228.667 C 270.000 228.575,270.075 228.519,270.167 228.542 C 270.259 228.565,270.428 228.402,270.542 228.180 C 270.656 227.958,270.846 227.757,270.962 227.734 C 271.079 227.711,271.098 227.730,271.004 227.776 C 270.910 227.823,270.833 227.932,270.833 228.019 C 270.833 228.354,274.659 226.040,274.839 225.597 C 274.954 225.313,274.981 225.303,274.989 225.541 C 274.998 225.784,275.134 225.738,275.792 225.274 C 276.227 224.967,276.808 224.603,277.083 224.465 C 278.513 223.748,279.058 223.388,279.132 223.111 C 279.188 222.901,279.251 222.867,279.335 223.003 C 279.459 223.203,280.253 222.818,280.539 222.421 C 280.606 222.327,280.663 222.309,280.664 222.381 C 280.666 222.454,280.828 222.363,281.025 222.179 C 281.222 221.995,281.436 221.877,281.500 221.917 C 281.564 221.956,281.768 221.847,281.953 221.675 C 282.138 221.502,282.677 221.165,283.149 220.925 C 283.622 220.686,284.196 220.327,284.424 220.129 C 284.652 219.931,284.947 219.753,285.080 219.733 C 285.213 219.714,285.549 219.536,285.827 219.338 C 286.106 219.139,286.333 219.025,286.333 219.084 C 286.333 219.143,286.451 219.073,286.595 218.929 C 286.739 218.785,286.950 218.667,287.064 218.667 C 287.177 218.667,287.418 218.535,287.598 218.375 C 287.778 218.215,288.203 217.941,288.541 217.768 C 288.880 217.595,289.117 217.388,289.069 217.310 C 289.020 217.231,289.177 217.167,289.417 217.167 C 289.657 217.167,289.812 217.100,289.762 217.019 C 289.686 216.896,289.890 216.781,290.500 216.604 C 290.546 216.591,291.043 216.299,291.605 215.957 C 292.167 215.614,292.710 215.333,292.812 215.333 C 292.914 215.333,293.091 215.183,293.205 215.000 C 293.320 214.817,293.527 214.665,293.665 214.663 C 293.803 214.661,294.104 214.513,294.333 214.333 C 294.563 214.154,294.844 214.006,294.958 214.004 C 295.073 214.002,295.167 213.941,295.167 213.870 C 295.167 213.798,295.651 213.483,296.243 213.171 C 296.962 212.790,297.335 212.488,297.368 212.259 C 297.406 211.994,297.526 211.924,297.897 211.951 C 298.200 211.973,298.643 211.803,299.094 211.493 C 299.488 211.222,299.890 211.000,299.988 211.000 C 300.086 211.000,300.168 210.944,300.169 210.875 C 300.170 210.806,300.478 210.603,300.853 210.423 C 301.231 210.242,301.603 209.918,301.687 209.697 C 301.805 209.387,301.924 209.320,302.221 209.394 C 302.474 209.458,302.809 209.351,303.209 209.079 C 303.543 208.852,303.858 208.667,303.910 208.667 C 304.141 208.667,306.000 207.284,306.003 207.110 C 306.004 206.999,306.071 207.021,306.160 207.162 C 306.293 207.372,306.371 207.359,306.700 207.070 C 306.911 206.885,307.365 206.588,307.708 206.412 C 308.052 206.235,308.333 206.033,308.333 205.962 C 308.333 205.891,308.479 205.833,308.657 205.833 C 308.835 205.833,309.025 205.760,309.081 205.671 C 309.136 205.582,309.443 205.385,309.763 205.233 C 310.083 205.081,310.308 204.919,310.262 204.873 C 310.124 204.735,310.496 204.166,310.714 204.180 C 310.867 204.190,310.865 204.214,310.708 204.277 C 310.594 204.323,310.500 204.435,310.500 204.525 C 310.500 204.727,311.186 204.539,311.417 204.275 C 311.508 204.170,311.791 203.976,312.045 203.845 C 312.691 203.512,312.866 203.607,305.250 200.169 C 303.446 199.354,298.850 197.260,297.667 196.713 C 296.979 196.395,295.367 195.663,294.083 195.087 C 292.800 194.510,291.262 193.814,290.667 193.541 C 289.368 192.945,284.389 190.679,283.333 190.203 C 282.921 190.017,280.033 188.705,276.917 187.289 C 273.800 185.873,270.875 184.545,270.417 184.338 C 269.958 184.131,269.208 183.788,268.750 183.576 C 266.520 182.544,256.128 177.833,256.082 177.833 C 256.052 177.833,255.216 177.449,254.223 176.979 C 253.229 176.510,251.442 175.692,250.250 175.162 C 249.058 174.632,247.408 173.884,246.583 173.499 C 245.758 173.114,244.033 172.328,242.750 171.752 C 240.197 170.607,233.224 167.435,231.500 166.634 C 230.904 166.357,229.779 165.849,229.000 165.504 C 228.221 165.159,225.783 164.052,223.583 163.043 C 221.383 162.035,219.246 161.057,218.833 160.871 C 217.244 160.151,216.025 159.603,214.500 158.919 C 213.629 158.529,210.254 156.992,207.000 155.503 C 203.746 154.013,200.840 152.690,200.542 152.562 L 200.000 152.329 200.000 211.167 M297.500 212.167 C 297.500 212.258,297.612 212.333,297.750 212.333 C 297.887 212.333,298.000 212.258,298.000 212.167 C 298.000 212.075,297.887 212.000,297.750 212.000 C 297.612 212.000,297.500 212.075,297.500 212.167 " stroke="none" fill="#d4d4d4" fill-rule="evenodd"></path><path id="path2" d="M199.486 17.125 C 199.356 17.377,199.156 17.683,199.040 17.805 C 198.925 17.927,198.869 18.089,198.916 18.166 C 198.963 18.242,198.932 18.330,198.847 18.361 C 198.762 18.392,198.667 18.529,198.637 18.667 C 198.608 18.804,198.451 19.016,198.289 19.136 C 198.127 19.257,198.031 19.416,198.077 19.489 C 198.122 19.562,198.016 19.752,197.841 19.910 C 197.655 20.078,197.563 20.313,197.621 20.474 C 197.675 20.626,197.661 20.697,197.589 20.632 C 197.452 20.509,196.641 21.586,196.710 21.800 C 196.732 21.868,196.579 22.107,196.371 22.331 C 196.162 22.555,196.028 22.834,196.073 22.950 C 196.118 23.066,196.017 23.235,195.850 23.324 C 195.683 23.414,195.446 23.734,195.324 24.035 C 195.202 24.337,195.028 24.634,194.938 24.695 C 194.847 24.756,194.754 24.943,194.729 25.109 C 194.705 25.275,194.606 25.437,194.509 25.469 C 194.412 25.501,194.333 25.634,194.333 25.764 C 194.333 25.894,194.267 26.000,194.187 26.000 C 194.106 26.000,193.941 26.244,193.819 26.542 C 193.697 26.840,193.519 27.168,193.424 27.272 C 193.328 27.375,193.030 27.825,192.761 28.272 C 192.491 28.718,191.912 29.674,191.472 30.396 C 191.033 31.118,190.711 31.771,190.758 31.846 C 190.805 31.922,190.688 32.066,190.500 32.167 C 190.312 32.268,190.201 32.421,190.255 32.508 C 190.309 32.595,190.269 32.667,190.167 32.667 C 190.064 32.667,190.027 32.742,190.083 32.833 C 190.140 32.925,190.102 33.000,190.000 33.000 C 189.898 33.000,189.855 33.067,189.906 33.149 C 189.957 33.231,189.881 33.343,189.738 33.398 C 189.596 33.453,189.526 33.573,189.583 33.665 C 189.640 33.758,189.615 33.833,189.528 33.833 C 189.441 33.833,189.322 34.021,189.265 34.250 C 189.207 34.479,189.090 34.667,189.005 34.667 C 188.919 34.667,188.718 34.948,188.558 35.292 C 188.398 35.635,188.223 35.954,188.168 36.000 C 187.967 36.168,186.667 38.330,186.667 38.496 C 186.667 38.590,186.597 38.667,186.511 38.667 C 186.353 38.667,186.074 39.314,186.134 39.542 C 186.152 39.610,186.079 39.667,185.972 39.667 C 185.865 39.667,185.820 39.709,185.871 39.760 C 185.923 39.811,185.788 40.030,185.572 40.246 C 185.357 40.461,185.132 40.832,185.072 41.069 C 185.013 41.306,184.897 41.500,184.815 41.500 C 184.734 41.500,184.667 41.642,184.667 41.816 C 184.667 41.989,184.549 42.176,184.406 42.231 C 184.263 42.286,184.192 42.407,184.249 42.499 C 184.306 42.591,184.275 42.667,184.180 42.667 C 184.084 42.667,183.959 42.854,183.902 43.083 C 183.844 43.313,183.734 43.500,183.656 43.500 C 183.579 43.500,183.385 43.781,183.225 44.125 C 183.065 44.469,182.891 44.788,182.838 44.833 C 182.651 44.996,182.161 45.833,182.253 45.833 C 182.304 45.833,182.196 45.995,182.012 46.192 C 181.829 46.389,181.713 46.606,181.755 46.674 C 181.797 46.743,181.721 46.841,181.585 46.893 C 181.445 46.947,181.381 47.098,181.437 47.244 C 181.491 47.385,181.450 47.500,181.346 47.500 C 181.142 47.500,180.390 48.666,180.459 48.875 C 180.481 48.944,180.429 49.000,180.342 49.000 C 180.256 49.000,180.087 49.178,179.967 49.395 C 179.848 49.612,179.566 50.118,179.341 50.520 C 179.117 50.921,178.948 51.306,178.966 51.375 C 178.985 51.444,178.925 51.500,178.833 51.500 C 178.742 51.500,178.676 51.556,178.686 51.625 C 178.737 51.943,178.653 52.178,178.519 52.095 C 178.438 52.045,178.277 52.235,178.160 52.516 C 178.043 52.798,177.862 53.116,177.757 53.223 C 177.508 53.477,176.523 55.210,176.525 55.389 C 176.527 55.465,176.472 55.578,176.404 55.639 C 176.336 55.700,176.341 55.645,176.416 55.516 C 176.507 55.358,176.489 55.321,176.359 55.401 C 176.253 55.466,176.167 55.656,176.167 55.823 C 176.167 55.989,176.054 56.219,175.917 56.333 C 175.779 56.447,175.667 56.644,175.667 56.770 C 175.667 56.897,175.610 57.000,175.540 57.000 C 175.470 57.000,175.315 57.158,175.194 57.351 C 175.013 57.641,175.013 57.682,175.196 57.588 C 175.317 57.526,175.271 57.593,175.093 57.738 C 174.915 57.882,174.821 58.000,174.884 58.000 C 174.946 58.000,174.851 58.169,174.672 58.375 C 174.492 58.581,174.362 58.793,174.381 58.845 C 174.401 58.898,174.285 59.072,174.123 59.234 C 173.962 59.395,173.868 59.588,173.914 59.663 C 173.960 59.737,173.887 59.841,173.752 59.893 C 173.600 59.951,173.547 60.096,173.614 60.271 C 173.681 60.444,173.657 60.514,173.553 60.449 C 173.398 60.354,172.911 61.104,172.964 61.355 C 172.977 61.413,172.840 61.593,172.660 61.756 C 172.480 61.919,172.333 62.153,172.333 62.276 C 172.333 62.399,172.258 62.500,172.167 62.500 C 172.075 62.500,172.000 62.650,172.000 62.833 C 172.000 63.017,171.924 63.167,171.831 63.167 C 171.737 63.167,171.531 63.448,171.372 63.792 C 171.213 64.135,171.008 64.472,170.917 64.539 C 170.825 64.606,170.812 64.663,170.887 64.664 C 170.962 64.666,170.905 64.785,170.760 64.930 C 170.615 65.075,170.547 65.274,170.608 65.373 C 170.669 65.472,170.641 65.504,170.543 65.443 C 170.377 65.341,170.084 65.776,170.140 66.042 C 170.155 66.110,170.103 66.167,170.026 66.167 C 169.949 66.167,169.743 66.446,169.568 66.787 C 169.393 67.128,169.119 67.555,168.958 67.735 C 168.798 67.915,168.667 68.137,168.667 68.227 C 168.667 68.317,168.560 68.509,168.430 68.654 C 168.300 68.798,168.168 69.027,168.138 69.163 C 168.108 69.298,167.989 69.510,167.873 69.634 C 167.758 69.759,167.707 69.931,167.761 70.018 C 167.814 70.104,167.759 70.154,167.637 70.129 C 167.516 70.104,167.417 70.196,167.417 70.333 C 167.417 70.471,167.321 70.644,167.205 70.719 C 167.088 70.793,167.036 70.924,167.090 71.010 C 167.143 71.096,167.125 71.167,167.050 71.167 C 166.975 71.167,166.815 71.325,166.694 71.517 C 166.513 71.808,166.513 71.849,166.696 71.755 C 166.817 71.693,166.767 71.764,166.583 71.914 C 166.400 72.063,166.274 72.301,166.303 72.443 C 166.332 72.587,166.279 72.653,166.183 72.593 C 166.087 72.534,165.962 72.677,165.903 72.910 C 165.845 73.143,165.718 73.333,165.621 73.333 C 165.524 73.333,165.490 73.379,165.546 73.434 C 165.601 73.490,165.504 73.689,165.329 73.876 C 165.154 74.064,165.051 74.281,165.099 74.359 C 165.147 74.436,165.112 74.500,165.022 74.500 C 164.840 74.500,163.732 76.343,163.794 76.542 C 163.816 76.610,163.758 76.667,163.667 76.667 C 163.575 76.667,163.500 76.768,163.500 76.891 C 163.500 77.014,163.352 77.249,163.171 77.413 C 162.990 77.577,162.794 77.869,162.735 78.064 C 162.676 78.258,162.512 78.548,162.371 78.708 C 162.230 78.869,162.169 79.000,162.236 79.000 C 162.303 79.000,162.239 79.119,162.094 79.263 C 161.949 79.408,161.871 79.592,161.920 79.672 C 161.969 79.751,161.855 79.899,161.667 80.000 C 161.478 80.101,161.368 80.255,161.422 80.342 C 161.476 80.429,161.452 80.500,161.370 80.500 C 161.233 80.500,160.790 81.255,160.762 81.536 C 160.755 81.602,160.619 81.808,160.460 81.995 C 160.300 82.181,160.225 82.334,160.293 82.336 C 160.361 82.337,160.342 82.394,160.250 82.461 C 159.897 82.720,159.557 83.244,159.833 83.103 C 159.971 83.033,159.943 83.089,159.773 83.228 C 159.434 83.504,159.000 84.255,159.000 84.565 C 159.000 84.672,158.850 84.888,158.667 85.045 C 158.483 85.202,158.333 85.429,158.333 85.550 C 158.333 85.671,158.184 85.931,158.001 86.127 C 157.636 86.519,157.161 87.269,156.710 88.167 C 156.549 88.487,156.355 88.795,156.281 88.850 C 156.028 89.036,155.663 89.853,155.882 89.743 C 155.993 89.687,155.918 89.787,155.717 89.965 C 155.516 90.144,155.301 90.488,155.240 90.730 C 155.179 90.973,155.007 91.243,154.856 91.330 C 154.706 91.418,154.636 91.492,154.700 91.495 C 154.765 91.498,154.631 91.701,154.403 91.947 C 154.175 92.194,154.027 92.496,154.075 92.620 C 154.122 92.744,154.050 92.888,153.915 92.940 C 153.779 92.992,153.705 93.094,153.750 93.167 C 153.795 93.239,153.738 93.335,153.624 93.380 C 153.510 93.425,153.192 93.902,152.917 94.439 C 152.642 94.977,152.374 95.454,152.321 95.500 C 152.268 95.546,152.081 95.846,151.904 96.167 C 151.728 96.487,151.521 96.796,151.444 96.852 C 151.368 96.908,151.311 97.002,151.319 97.060 C 151.362 97.382,151.317 97.510,151.190 97.431 C 151.111 97.382,150.912 97.640,150.748 98.005 C 150.584 98.369,150.401 98.667,150.341 98.667 C 150.243 98.667,149.452 100.119,149.427 100.345 C 149.421 100.398,149.285 100.572,149.123 100.734 C 148.962 100.895,148.873 101.096,148.925 101.180 C 148.977 101.264,148.940 101.333,148.843 101.333 C 148.746 101.333,148.667 101.422,148.667 101.531 C 148.667 101.640,148.498 101.914,148.292 102.141 C 148.085 102.368,148.029 102.489,148.167 102.411 C 148.304 102.332,148.168 102.553,147.864 102.902 C 147.556 103.256,147.352 103.643,147.404 103.777 C 147.455 103.911,147.423 103.972,147.331 103.915 C 147.241 103.859,147.167 103.935,147.167 104.083 C 147.167 104.247,147.090 104.306,146.972 104.232 C 146.841 104.151,146.812 104.203,146.883 104.389 C 146.942 104.542,146.933 104.667,146.864 104.667 C 146.795 104.667,146.606 104.892,146.443 105.167 C 146.281 105.442,146.186 105.667,146.233 105.667 C 146.279 105.667,146.133 105.866,145.907 106.109 C 145.681 106.353,145.529 106.584,145.568 106.624 C 145.607 106.663,145.514 106.841,145.361 107.019 C 145.208 107.197,144.919 107.622,144.717 107.963 C 143.646 109.779,143.200 110.595,143.223 110.695 C 143.238 110.756,143.063 111.012,142.833 111.263 C 142.604 111.515,142.529 111.664,142.667 111.596 C 142.804 111.527,142.729 111.626,142.500 111.815 C 142.271 112.004,142.153 112.161,142.237 112.163 C 142.322 112.165,142.228 112.341,142.028 112.554 C 141.827 112.767,141.714 112.992,141.776 113.054 C 141.838 113.116,141.789 113.167,141.667 113.167 C 141.544 113.167,141.490 113.212,141.546 113.268 C 141.601 113.323,141.504 113.522,141.329 113.710 C 141.154 113.897,141.046 114.106,141.088 114.174 C 141.130 114.243,141.042 114.346,140.892 114.403 C 140.742 114.461,140.661 114.550,140.712 114.601 C 140.764 114.653,140.681 114.841,140.528 115.019 C 140.375 115.198,140.252 115.398,140.254 115.464 C 140.257 115.530,140.162 115.696,140.045 115.833 C 139.927 115.971,139.850 116.124,139.874 116.173 C 139.897 116.223,139.686 116.560,139.403 116.923 C 138.908 117.560,137.903 119.241,137.813 119.583 C 137.788 119.675,137.636 119.893,137.473 120.067 C 137.311 120.241,137.213 120.440,137.255 120.508 C 137.297 120.576,137.209 120.679,137.059 120.736 C 136.908 120.794,136.830 120.886,136.885 120.940 C 136.939 120.995,136.875 121.149,136.742 121.282 C 136.609 121.415,136.500 121.673,136.500 121.855 C 136.500 122.037,136.442 122.150,136.371 122.106 C 136.299 122.062,136.113 122.249,135.957 122.521 C 135.784 122.822,135.753 122.975,135.878 122.912 C 135.991 122.855,135.942 122.924,135.769 123.065 C 135.595 123.205,135.370 123.463,135.269 123.638 C 134.739 124.545,134.369 125.266,134.365 125.398 C 134.363 125.479,134.296 125.592,134.215 125.648 C 133.963 125.822,133.339 126.783,133.423 126.867 C 133.466 126.911,133.352 127.083,133.168 127.249 C 132.984 127.415,132.833 127.622,132.833 127.708 C 132.833 127.795,132.665 128.101,132.458 128.389 C 132.092 128.900,131.865 129.283,131.383 130.205 C 131.253 130.455,131.074 130.704,130.987 130.758 C 130.899 130.812,130.871 130.926,130.924 131.012 C 130.977 131.097,130.940 131.167,130.843 131.167 C 130.746 131.167,130.667 131.245,130.667 131.340 C 130.667 131.436,130.517 131.675,130.333 131.872 C 130.150 132.069,130.000 132.357,130.000 132.514 C 130.000 132.670,129.887 132.841,129.750 132.894 C 129.612 132.946,129.500 133.074,129.500 133.177 C 129.500 133.281,129.335 133.597,129.134 133.879 C 128.927 134.170,128.873 134.332,129.009 134.251 C 129.141 134.173,129.044 134.320,128.792 134.577 C 128.540 134.835,128.333 135.148,128.333 135.273 C 128.333 135.398,128.258 135.500,128.167 135.500 C 128.075 135.500,128.000 135.603,128.000 135.730 C 128.000 135.856,127.888 136.052,127.752 136.165 C 127.615 136.278,127.545 136.438,127.595 136.519 C 127.645 136.600,127.623 136.667,127.545 136.667 C 127.467 136.667,127.188 137.079,126.924 137.583 C 126.660 138.087,126.378 138.500,126.296 138.500 C 126.214 138.500,126.189 138.569,126.241 138.652 C 126.293 138.736,126.266 138.830,126.180 138.861 C 126.095 138.892,126.001 139.026,125.971 139.160 C 125.941 139.294,125.785 139.552,125.625 139.733 C 125.465 139.915,125.333 140.161,125.333 140.281 C 125.333 140.402,125.254 140.500,125.157 140.500 C 125.060 140.500,125.027 140.575,125.083 140.667 C 125.140 140.758,125.116 140.833,125.030 140.833 C 124.944 140.833,124.775 141.077,124.655 141.375 C 124.535 141.673,124.337 141.978,124.215 142.052 C 124.093 142.126,124.036 142.258,124.090 142.344 C 124.143 142.430,124.107 142.500,124.010 142.500 C 123.913 142.500,123.833 142.612,123.833 142.750 C 123.833 142.887,123.754 143.000,123.657 143.000 C 123.560 143.000,123.523 143.069,123.575 143.152 C 123.626 143.236,123.612 143.330,123.543 143.361 C 123.351 143.446,122.755 144.349,122.489 144.958 C 122.359 145.256,122.195 145.500,122.126 145.500 C 122.057 145.500,122.000 145.654,122.000 145.843 C 122.000 146.032,121.925 146.140,121.833 146.083 C 121.742 146.027,121.657 146.060,121.646 146.157 C 121.634 146.254,121.616 146.408,121.604 146.500 C 121.593 146.592,121.377 146.925,121.125 147.241 C 120.873 147.557,120.667 147.932,120.667 148.074 C 120.667 148.217,120.592 148.333,120.500 148.333 C 120.408 148.333,120.333 148.446,120.333 148.583 C 120.333 148.721,120.254 148.833,120.157 148.833 C 120.060 148.833,120.021 148.900,120.072 148.981 C 120.122 149.062,120.044 149.228,119.897 149.349 C 119.676 149.533,119.317 150.186,119.264 150.500 C 119.256 150.546,119.079 150.755,118.869 150.964 C 118.659 151.174,118.533 151.418,118.587 151.506 C 118.642 151.594,118.614 151.667,118.526 151.667 C 118.358 151.667,117.648 152.774,117.596 153.117 C 117.580 153.227,117.439 153.458,117.283 153.630 C 117.127 153.802,117.000 154.025,117.000 154.124 C 117.000 154.224,116.941 154.331,116.868 154.361 C 116.652 154.453,115.500 156.434,115.431 156.833 C 115.423 156.879,115.245 157.088,115.036 157.298 C 114.826 157.507,114.694 157.743,114.743 157.822 C 114.792 157.901,114.721 158.008,114.585 158.060 C 114.450 158.112,114.379 158.260,114.429 158.389 C 114.479 158.518,114.402 158.668,114.260 158.723 C 114.117 158.778,114.000 158.938,114.000 159.078 C 114.000 159.218,113.942 159.333,113.871 159.333 C 113.800 159.333,113.594 159.615,113.413 159.958 C 113.232 160.302,112.990 160.682,112.875 160.804 C 112.675 161.015,112.601 161.263,112.651 161.554 C 112.664 161.630,112.598 161.644,112.504 161.586 C 112.351 161.491,112.261 161.707,112.314 162.042 C 112.324 162.110,112.250 162.167,112.149 162.167 C 112.047 162.167,112.009 162.283,112.064 162.425 C 112.118 162.568,112.095 162.642,112.013 162.591 C 111.930 162.540,111.632 162.874,111.350 163.333 C 111.067 163.791,110.879 164.167,110.930 164.167 C 110.982 164.167,110.906 164.285,110.762 164.429 C 110.618 164.573,110.500 164.791,110.500 164.915 C 110.500 165.038,110.444 165.164,110.375 165.194 C 110.160 165.290,109.333 166.647,109.333 166.905 C 109.333 167.040,109.227 167.210,109.097 167.283 C 108.967 167.357,108.835 167.529,108.805 167.667 C 108.775 167.804,108.708 167.954,108.656 168.000 C 108.392 168.233,107.472 169.714,107.418 169.991 C 107.385 170.166,107.199 170.468,107.006 170.661 C 106.813 170.854,106.694 171.077,106.743 171.155 C 106.792 171.234,106.731 171.337,106.609 171.384 C 106.486 171.431,106.260 171.720,106.105 172.026 C 105.951 172.333,105.414 173.251,104.913 174.066 C 104.411 174.882,104.000 175.589,104.000 175.637 C 104.000 175.685,103.869 175.874,103.708 176.057 C 103.492 176.304,103.481 176.359,103.667 176.266 C 103.804 176.198,103.771 176.260,103.593 176.404 C 103.415 176.549,103.324 176.667,103.392 176.667 C 103.459 176.667,103.323 176.872,103.090 177.123 C 102.857 177.374,102.667 177.644,102.667 177.722 C 102.667 177.800,102.517 178.055,102.333 178.288 C 102.150 178.521,102.000 178.852,102.000 179.022 C 102.000 179.193,101.927 179.333,101.838 179.333 C 101.680 179.333,101.114 180.274,101.205 180.385 C 101.230 180.416,101.119 180.572,100.958 180.732 C 100.798 180.893,100.667 181.131,100.667 181.262 C 100.667 181.393,100.590 181.500,100.497 181.500 C 100.404 181.500,100.198 181.781,100.039 182.125 C 99.880 182.469,99.675 182.805,99.583 182.872 C 99.492 182.940,99.476 182.996,99.548 182.997 C 99.620 182.999,99.526 183.165,99.339 183.366 C 99.151 183.567,98.835 184.092,98.636 184.533 C 98.437 184.973,98.212 185.333,98.137 185.333 C 98.062 185.333,98.000 185.475,98.000 185.649 C 98.000 185.822,97.883 186.009,97.739 186.064 C 97.596 186.119,97.526 186.240,97.583 186.332 C 97.640 186.424,97.607 186.500,97.510 186.500 C 97.413 186.500,97.333 186.603,97.333 186.730 C 97.333 186.856,97.215 187.057,97.071 187.177 C 96.847 187.363,96.122 188.583,96.087 188.833 C 96.080 188.879,95.835 189.245,95.541 189.646 C 95.247 190.047,95.042 190.433,95.085 190.503 C 95.129 190.574,95.053 190.675,94.916 190.727 C 94.779 190.780,94.667 190.913,94.667 191.023 C 94.667 191.134,94.535 191.374,94.375 191.557 C 94.215 191.741,94.183 191.832,94.304 191.761 C 94.487 191.654,94.487 191.692,94.306 191.983 C 94.185 192.175,94.030 192.333,93.960 192.333 C 93.890 192.333,93.833 192.438,93.833 192.566 C 93.833 192.693,93.721 192.841,93.583 192.894 C 93.446 192.946,93.333 193.074,93.333 193.177 C 93.333 193.281,93.192 193.564,93.018 193.808 C 92.845 194.051,92.696 194.325,92.686 194.417 C 92.677 194.508,92.562 194.708,92.432 194.861 C 92.301 195.014,92.238 195.182,92.291 195.236 C 92.345 195.289,92.297 195.333,92.185 195.333 C 92.072 195.333,92.027 195.408,92.083 195.500 C 92.140 195.592,92.107 195.667,92.010 195.667 C 91.913 195.667,91.833 195.779,91.833 195.917 C 91.833 196.054,91.764 196.167,91.679 196.167 C 91.594 196.167,91.417 196.373,91.285 196.625 C 90.986 197.198,90.679 197.730,90.158 198.583 C 89.934 198.950,89.750 199.304,89.750 199.370 C 89.750 199.435,89.619 199.642,89.460 199.828 C 89.300 200.014,89.207 200.167,89.252 200.167 C 89.297 200.167,89.181 200.319,88.994 200.506 C 88.807 200.693,88.694 200.910,88.743 200.989 C 88.792 201.067,88.715 201.177,88.572 201.231 C 88.429 201.286,88.359 201.407,88.416 201.499 C 88.473 201.591,88.443 201.667,88.348 201.667 C 88.254 201.667,88.224 201.798,88.282 201.958 C 88.339 202.119,88.325 202.194,88.250 202.126 C 88.133 202.020,87.333 202.987,87.333 203.234 C 87.333 203.358,88.405 202.951,89.833 202.286 C 90.521 201.966,91.421 201.554,91.833 201.372 C 93.041 200.837,98.289 198.433,99.878 197.686 C 100.682 197.309,101.369 197.000,101.405 197.000 C 101.441 197.000,102.021 196.744,102.693 196.432 C 103.366 196.120,105.567 195.116,107.583 194.200 C 109.600 193.285,111.913 192.227,112.724 191.849 C 113.534 191.471,115.136 190.746,116.284 190.238 C 117.431 189.731,119.079 188.982,119.945 188.574 C 120.811 188.167,121.546 187.833,121.578 187.833 C 121.610 187.833,122.374 187.489,123.276 187.069 C 124.178 186.649,125.142 186.204,125.417 186.080 C 125.692 185.956,127.154 185.296,128.667 184.613 C 130.179 183.930,131.792 183.203,132.250 182.997 C 132.708 182.790,134.546 181.952,136.333 181.133 C 140.570 179.193,140.246 179.341,144.667 177.337 C 145.629 176.901,146.829 176.354,147.333 176.123 C 148.269 175.693,151.249 174.341,152.750 173.665 C 153.208 173.458,154.071 173.066,154.667 172.792 C 155.262 172.519,157.362 171.563,159.333 170.668 C 161.304 169.773,163.442 168.799,164.083 168.504 C 164.725 168.209,165.475 167.870,165.750 167.751 C 166.025 167.632,166.737 167.311,167.333 167.037 C 167.929 166.763,169.617 165.998,171.083 165.336 C 172.550 164.675,175.025 163.550,176.583 162.836 C 178.142 162.123,179.867 161.333,180.417 161.082 C 180.967 160.830,182.579 160.102,184.000 159.462 C 185.421 158.823,187.108 158.055,187.750 157.755 C 188.392 157.456,189.292 157.043,189.750 156.838 C 190.208 156.633,191.033 156.256,191.583 155.999 C 193.773 154.979,195.957 154.000,196.042 154.000 C 196.092 154.000,197.003 153.583,198.067 153.074 L 200.001 152.147 200.000 84.407 C 199.999 47.150,199.936 16.667,199.861 16.667 C 199.785 16.667,199.617 16.873,199.486 17.125 M214.273 40.250 C 214.658 40.908,214.667 40.918,214.667 40.713 C 214.667 40.616,214.512 40.360,214.323 40.143 L 213.980 39.750 214.273 40.250 M87.380 224.785 C 87.325 224.930,87.387 225.131,87.518 225.232 C 87.650 225.334,88.007 225.810,88.312 226.291 C 88.620 226.776,88.945 227.117,89.043 227.057 C 89.145 226.993,89.169 227.028,89.099 227.141 C 89.034 227.247,89.060 227.333,89.157 227.333 C 89.254 227.333,89.333 227.446,89.333 227.583 C 89.333 227.721,89.408 227.833,89.500 227.833 C 89.592 227.833,89.667 227.935,89.667 228.059 C 89.667 228.183,89.846 228.478,90.066 228.715 C 90.285 228.952,90.423 229.188,90.371 229.240 C 90.320 229.291,90.365 229.333,90.472 229.333 C 90.579 229.333,90.667 229.427,90.667 229.542 C 90.668 229.656,90.893 229.990,91.167 230.283 C 91.442 230.576,91.667 230.869,91.667 230.934 C 91.667 231.083,93.039 232.897,93.208 232.972 C 93.277 233.003,93.333 233.136,93.333 233.269 C 93.333 233.402,93.445 233.553,93.582 233.606 C 93.719 233.659,93.797 233.758,93.754 233.827 C 93.712 233.895,93.897 234.206,94.167 234.517 C 94.436 234.829,94.734 235.174,94.828 235.285 C 94.923 235.395,95.000 235.564,95.000 235.660 C 95.000 235.755,95.075 235.833,95.167 235.833 C 95.258 235.833,95.333 235.943,95.333 236.077 C 95.333 236.210,95.539 236.510,95.790 236.743 C 96.041 236.976,96.189 237.167,96.118 237.167 C 95.961 237.167,97.270 238.972,97.710 239.364 C 97.884 239.519,98.042 239.749,98.060 239.875 C 98.096 240.120,98.633 240.885,99.121 241.387 C 99.284 241.554,99.417 241.764,99.417 241.855 C 99.417 241.945,99.604 242.171,99.833 242.357 C 100.063 242.543,100.146 242.641,100.019 242.574 C 99.892 242.507,100.113 242.913,100.510 243.476 C 100.907 244.039,101.297 244.500,101.376 244.500 C 101.455 244.500,101.476 244.570,101.424 244.655 C 101.371 244.741,101.479 244.916,101.663 245.045 C 101.847 245.174,101.959 245.319,101.911 245.367 C 101.863 245.415,102.041 245.687,102.307 245.971 C 102.572 246.256,102.749 246.528,102.700 246.577 C 102.651 246.627,102.690 246.667,102.785 246.667 C 102.881 246.667,103.054 246.895,103.169 247.173 C 103.285 247.452,103.519 247.754,103.690 247.846 C 103.860 247.937,104.000 248.122,104.000 248.256 C 104.000 248.390,104.075 248.500,104.167 248.500 C 104.258 248.500,104.333 248.602,104.333 248.726 C 104.333 248.850,104.521 249.154,104.750 249.401 C 104.979 249.648,105.167 249.887,105.167 249.931 C 105.167 249.999,105.765 250.858,107.461 253.224 C 107.668 253.513,108.068 254.106,108.350 254.542 C 108.632 254.977,108.932 255.333,109.018 255.333 C 109.104 255.333,109.248 255.526,109.338 255.761 C 109.509 256.213,110.329 257.378,110.542 257.472 C 110.610 257.503,110.667 257.631,110.667 257.758 C 110.667 257.885,110.817 258.069,111.000 258.167 C 111.183 258.265,111.333 258.455,111.333 258.589 C 111.333 258.723,111.413 258.833,111.510 258.833 C 111.607 258.833,111.643 258.903,111.590 258.989 C 111.538 259.074,111.636 259.243,111.808 259.364 C 111.981 259.484,112.129 259.658,112.138 259.750 C 112.158 259.962,113.300 261.598,113.788 262.115 C 113.992 262.331,114.150 262.525,114.140 262.545 C 114.096 262.633,114.838 263.746,114.915 263.708 C 114.962 263.685,115.010 263.723,115.022 263.792 C 115.034 263.860,115.353 264.360,115.730 264.901 C 116.108 265.442,116.814 266.455,117.299 267.151 C 117.784 267.847,118.258 268.396,118.353 268.371 C 118.447 268.346,118.482 268.394,118.430 268.479 C 118.377 268.564,118.555 268.869,118.825 269.158 C 119.095 269.447,119.321 269.736,119.327 269.800 C 119.358 270.138,119.539 270.495,119.646 270.429 C 119.713 270.388,119.907 270.612,120.077 270.927 C 120.247 271.242,120.449 271.500,120.526 271.500 C 120.603 271.500,120.667 271.612,120.667 271.750 C 120.667 271.887,120.742 272.000,120.833 272.000 C 120.925 272.000,120.981 272.094,120.958 272.208 C 120.935 272.323,121.016 272.396,121.137 272.371 C 121.259 272.346,121.311 272.402,121.253 272.496 C 121.194 272.590,121.231 272.667,121.333 272.667 C 121.436 272.667,121.476 272.737,121.424 272.822 C 121.371 272.907,121.460 273.076,121.622 273.197 C 121.784 273.318,122.022 273.620,122.150 273.869 C 122.279 274.118,122.459 274.275,122.551 274.219 C 122.643 274.162,122.667 274.197,122.605 274.298 C 122.543 274.398,122.663 274.646,122.871 274.848 C 123.080 275.050,123.138 275.162,123.000 275.095 C 122.862 275.029,122.900 275.097,123.083 275.245 C 123.267 275.393,123.417 275.592,123.417 275.687 C 123.417 275.782,123.547 275.955,123.706 276.072 C 123.865 276.188,123.953 276.324,123.903 276.375 C 123.852 276.425,124.097 276.752,124.446 277.101 C 124.795 277.451,124.969 277.677,124.832 277.606 C 124.651 277.511,124.656 277.535,124.851 277.697 C 124.998 277.818,125.172 278.086,125.237 278.292 C 125.302 278.498,125.503 278.746,125.683 278.842 C 125.862 278.938,125.965 279.088,125.911 279.176 C 125.857 279.264,125.929 279.381,126.073 279.436 C 126.216 279.491,126.333 279.629,126.333 279.743 C 126.333 279.858,126.521 280.154,126.750 280.401 C 126.979 280.648,127.167 280.913,127.167 280.989 C 127.167 281.066,127.357 281.253,127.589 281.405 C 127.821 281.557,127.970 281.747,127.920 281.827 C 127.871 281.907,127.946 282.089,128.088 282.231 C 128.229 282.372,128.329 282.510,128.309 282.536 C 128.237 282.631,129.215 284.000,129.355 284.000 C 129.435 284.000,129.500 284.076,129.500 284.168 C 129.500 284.464,130.451 285.660,130.588 285.536 C 130.661 285.470,130.670 285.504,130.609 285.611 C 130.512 285.780,131.148 286.727,131.553 287.019 C 131.631 287.075,131.707 287.187,131.723 287.269 C 131.738 287.350,131.812 287.396,131.887 287.371 C 131.963 287.346,131.985 287.389,131.936 287.468 C 131.888 287.547,132.088 287.953,132.382 288.371 C 133.650 290.172,134.069 290.736,134.359 291.026 C 134.528 291.195,134.667 291.415,134.667 291.515 C 134.667 291.809,135.277 292.500,135.421 292.369 C 135.494 292.304,135.506 292.333,135.449 292.433 C 135.348 292.611,135.987 293.619,136.338 293.836 C 136.434 293.895,136.692 294.275,136.912 294.680 C 137.133 295.085,137.390 295.399,137.484 295.377 C 137.578 295.355,137.612 295.448,137.560 295.584 C 137.506 295.724,137.581 295.875,137.733 295.933 C 137.880 295.990,138.000 296.136,138.000 296.258 C 138.000 296.381,138.150 296.586,138.332 296.714 C 138.515 296.842,138.627 296.984,138.581 297.030 C 138.534 297.077,138.679 297.311,138.902 297.552 C 139.125 297.792,139.356 298.143,139.416 298.330 C 139.475 298.518,139.586 298.633,139.661 298.587 C 139.791 298.507,140.029 298.886,140.077 299.250 C 140.089 299.342,140.194 299.396,140.312 299.371 C 140.429 299.346,140.479 299.399,140.423 299.490 C 140.367 299.580,140.468 299.801,140.647 299.980 C 140.826 300.159,140.930 300.348,140.879 300.399 C 140.828 300.450,140.909 300.539,141.059 300.597 C 141.210 300.655,141.333 300.803,141.333 300.926 C 141.333 301.049,141.427 301.210,141.542 301.283 C 141.657 301.357,141.851 301.613,141.975 301.852 C 142.098 302.092,142.365 302.467,142.567 302.686 C 142.770 302.904,142.932 303.121,142.928 303.167 C 142.911 303.333,144.061 304.833,144.205 304.833 C 144.286 304.833,144.314 304.897,144.266 304.974 C 144.218 305.052,144.383 305.333,144.634 305.599 C 144.884 305.866,145.193 306.287,145.319 306.535 C 145.446 306.784,145.782 307.229,146.066 307.524 C 146.351 307.819,146.471 308.004,146.333 307.934 C 146.196 307.865,146.260 307.964,146.477 308.154 C 146.693 308.344,146.806 308.501,146.727 308.503 C 146.648 308.504,146.659 308.560,146.752 308.628 C 146.844 308.695,147.123 309.064,147.372 309.448 C 147.621 309.832,148.053 310.380,148.333 310.666 C 148.612 310.952,148.804 311.245,148.760 311.318 C 148.715 311.390,148.807 311.596,148.964 311.776 C 149.121 311.955,149.325 312.220,149.417 312.365 C 150.082 313.415,150.865 314.454,151.142 314.651 C 151.322 314.780,151.434 314.978,151.390 315.092 C 151.347 315.206,151.448 315.400,151.616 315.524 C 151.784 315.648,152.013 315.956,152.124 316.208 C 152.235 316.460,152.403 316.667,152.496 316.667 C 152.590 316.667,152.667 316.777,152.667 316.911 C 152.667 317.045,152.823 317.239,153.014 317.341 C 153.205 317.443,153.318 317.571,153.265 317.624 C 153.155 317.734,153.950 318.847,154.286 319.052 C 154.408 319.126,154.468 319.250,154.421 319.326 C 154.374 319.403,154.452 319.510,154.595 319.565 C 154.738 319.619,154.811 319.735,154.758 319.821 C 154.705 319.907,154.812 320.083,154.996 320.212 C 155.180 320.341,155.282 320.496,155.221 320.557 C 155.161 320.617,155.199 320.667,155.306 320.667 C 155.412 320.667,155.500 320.742,155.500 320.835 C 155.500 321.025,157.299 323.517,157.573 323.706 C 157.670 323.773,157.693 323.829,157.624 323.831 C 157.477 323.834,159.819 327.056,160.029 327.139 C 160.106 327.170,160.128 327.260,160.079 327.340 C 160.030 327.420,160.179 327.610,160.411 327.762 C 160.643 327.914,160.833 328.182,160.833 328.358 C 160.833 328.533,160.946 328.720,161.083 328.773 C 161.221 328.826,161.333 328.968,161.333 329.089 C 161.333 329.210,161.428 329.409,161.543 329.530 C 161.756 329.753,161.864 329.904,162.932 331.458 C 163.262 331.940,163.605 332.333,163.693 332.333 C 163.781 332.333,163.807 332.408,163.750 332.500 C 163.693 332.592,163.718 332.667,163.804 332.667 C 163.890 332.667,164.002 332.824,164.053 333.017 C 164.111 333.240,164.218 333.321,164.348 333.241 C 164.466 333.168,164.509 333.184,164.450 333.280 C 164.332 333.470,165.100 334.667,165.339 334.667 C 165.428 334.667,165.481 334.732,165.458 334.811 C 165.435 334.891,165.604 335.122,165.833 335.324 C 166.063 335.526,166.137 335.643,166.000 335.584 C 165.850 335.519,165.871 335.574,166.053 335.722 C 166.219 335.858,166.361 336.033,166.369 336.110 C 166.395 336.389,167.175 337.500,167.345 337.500 C 167.441 337.500,167.473 337.576,167.416 337.668 C 167.359 337.760,167.422 337.878,167.556 337.929 C 167.691 337.981,167.840 338.175,167.889 338.362 C 167.946 338.578,168.052 338.654,168.184 338.573 C 168.325 338.486,168.359 338.527,168.291 338.704 C 168.232 338.858,168.373 339.156,168.640 339.439 C 168.887 339.702,169.194 340.123,169.323 340.375 C 169.451 340.627,169.618 340.833,169.693 340.833 C 169.768 340.833,169.939 341.097,170.074 341.419 C 170.208 341.741,170.434 342.049,170.575 342.103 C 170.716 342.157,170.790 342.269,170.738 342.352 C 170.687 342.435,170.763 342.547,170.906 342.602 C 171.049 342.657,171.167 342.803,171.167 342.925 C 171.167 343.048,171.333 343.265,171.537 343.407 C 171.741 343.550,171.853 343.667,171.785 343.667 C 171.718 343.667,171.937 344.079,172.272 344.583 C 172.607 345.087,172.945 345.500,173.024 345.500 C 173.102 345.500,173.167 345.579,173.167 345.676 C 173.167 345.870,174.527 347.864,175.022 348.395 C 175.193 348.579,175.333 348.822,175.333 348.934 C 175.333 349.047,175.540 349.301,175.792 349.498 C 176.044 349.696,176.137 349.809,176.000 349.750 C 175.833 349.678,175.846 349.721,176.039 349.879 C 176.198 350.010,176.293 350.151,176.251 350.194 C 176.208 350.236,176.428 350.541,176.740 350.871 C 177.051 351.202,177.272 351.505,177.231 351.546 C 177.190 351.587,177.365 351.850,177.620 352.129 C 177.875 352.408,178.106 352.737,178.134 352.860 C 178.162 352.983,178.293 353.167,178.426 353.268 C 178.558 353.370,178.667 353.522,178.667 353.606 C 178.667 353.690,178.889 354.003,179.162 354.301 C 179.434 354.599,179.668 354.897,179.681 354.963 C 179.730 355.203,180.727 356.500,180.862 356.500 C 180.938 356.500,180.982 356.556,180.961 356.625 C 180.911 356.783,182.033 358.474,182.579 359.063 C 182.806 359.308,182.975 359.525,182.955 359.546 C 182.898 359.605,183.878 361.006,184.274 361.430 C 184.471 361.641,184.591 361.853,184.542 361.903 C 184.493 361.952,184.575 362.039,184.725 362.097 C 184.875 362.154,184.960 362.264,184.913 362.339 C 184.866 362.415,184.979 362.583,185.163 362.712 C 185.347 362.841,185.450 362.994,185.392 363.053 C 185.333 363.111,185.409 363.206,185.559 363.264 C 185.710 363.322,185.833 363.463,185.833 363.577 C 185.833 363.691,186.021 363.987,186.250 364.234 C 186.479 364.482,186.667 364.799,186.667 364.941 C 186.667 365.082,186.816 365.237,186.998 365.285 C 187.180 365.332,187.289 365.438,187.238 365.519 C 187.188 365.600,187.226 365.667,187.323 365.667 C 187.421 365.667,187.484 365.723,187.465 365.792 C 187.399 366.023,187.849 366.677,188.006 366.579 C 188.092 366.526,188.125 366.581,188.079 366.702 C 188.033 366.822,188.277 367.212,188.622 367.567 C 188.968 367.923,189.255 368.259,189.262 368.315 C 189.301 368.651,189.754 369.333,189.938 369.333 C 190.063 369.333,190.115 369.440,190.061 369.582 C 190.006 369.724,190.080 369.875,190.233 369.933 C 190.381 369.990,190.622 370.290,190.769 370.600 C 190.916 370.910,191.115 371.115,191.211 371.056 C 191.312 370.994,191.335 371.029,191.267 371.140 C 191.202 371.245,191.339 371.521,191.574 371.756 C 191.808 371.990,192.000 372.253,192.000 372.341 C 192.000 372.428,192.079 372.500,192.177 372.500 C 192.274 372.500,192.310 372.570,192.257 372.655 C 192.204 372.741,192.312 372.916,192.496 373.045 C 192.680 373.174,192.788 373.323,192.735 373.376 C 192.682 373.430,192.795 373.557,192.986 373.659 C 193.177 373.761,193.333 373.954,193.333 374.088 C 193.333 374.373,194.830 376.500,195.030 376.500 C 195.105 376.500,195.167 376.617,195.167 376.760 C 195.167 376.914,195.245 376.971,195.359 376.901 C 195.473 376.830,195.506 376.855,195.441 376.960 C 195.381 377.058,195.519 377.362,195.749 377.635 C 195.979 377.908,196.168 378.196,196.169 378.274 C 196.172 378.402,196.694 379.078,197.406 379.875 C 197.549 380.035,197.626 380.167,197.576 380.167 C 197.502 380.167,198.205 381.176,198.794 381.917 C 198.868 382.008,199.100 382.365,199.311 382.708 C 199.681 383.313,200.000 383.520,200.000 383.157 C 200.000 383.060,199.906 383.037,199.792 383.105 C 199.625 383.205,199.625 383.179,199.791 382.974 C 200.010 382.704,200.116 291.496,199.898 290.929 C 199.843 290.785,199.734 290.667,199.656 290.667 C 199.578 290.667,199.240 290.480,198.904 290.252 C 198.569 290.025,198.236 289.874,198.164 289.918 C 198.093 289.962,197.994 289.893,197.945 289.764 C 197.896 289.635,197.588 289.433,197.261 289.315 C 196.934 289.196,196.667 289.045,196.667 288.978 C 196.667 288.911,196.310 288.686,195.875 288.477 C 195.440 288.269,194.933 287.969,194.750 287.812 C 194.567 287.654,194.306 287.501,194.171 287.471 C 194.035 287.441,193.823 287.322,193.699 287.207 C 193.575 287.091,193.393 287.047,193.294 287.108 C 193.196 287.168,193.159 287.148,193.212 287.061 C 193.266 286.975,192.921 286.690,192.446 286.428 C 191.972 286.166,191.452 285.838,191.292 285.700 C 191.131 285.562,191.000 285.509,191.000 285.583 C 191.000 285.658,190.850 285.583,190.667 285.417 C 190.483 285.251,190.333 285.167,190.333 285.231 C 190.333 285.294,190.172 285.196,189.975 285.012 C 189.778 284.829,189.561 284.712,189.494 284.754 C 189.426 284.796,189.280 284.720,189.170 284.587 C 188.980 284.358,187.109 283.249,186.750 283.152 C 186.658 283.127,186.484 283.008,186.363 282.887 C 186.242 282.766,186.047 282.667,185.931 282.667 C 185.814 282.667,185.585 282.519,185.422 282.340 C 185.260 282.160,184.873 281.929,184.563 281.827 C 184.253 281.724,184.000 281.567,184.000 281.477 C 184.000 281.387,183.935 281.354,183.856 281.403 C 183.776 281.452,183.579 281.346,183.417 281.167 C 183.255 280.988,183.057 280.881,182.978 280.930 C 182.898 280.980,182.833 280.940,182.833 280.843 C 182.833 280.746,182.730 280.667,182.604 280.667 C 182.477 280.667,182.274 280.546,182.152 280.399 C 181.955 280.162,181.284 279.802,180.967 279.764 C 180.902 279.756,180.756 279.656,180.642 279.542 C 180.527 279.427,180.336 279.333,180.217 279.333 C 180.097 279.333,180.000 279.264,180.000 279.178 C 180.000 279.005,177.488 277.568,177.292 277.628 C 177.223 277.649,177.167 277.608,177.167 277.536 C 177.167 277.380,176.184 276.776,175.846 276.724 C 175.715 276.704,175.542 276.569,175.461 276.424 C 175.379 276.278,175.242 276.203,175.156 276.256 C 175.070 276.310,175.000 276.285,175.000 276.202 C 175.000 276.119,174.689 275.910,174.309 275.739 C 173.929 275.568,173.524 275.334,173.410 275.220 C 173.296 275.105,173.102 274.990,172.980 274.964 C 172.858 274.938,172.656 274.822,172.532 274.707 C 172.408 274.591,172.241 274.537,172.162 274.586 C 172.082 274.636,171.934 274.522,171.833 274.333 C 171.732 274.145,171.579 274.035,171.492 274.089 C 171.405 274.142,171.333 274.120,171.333 274.039 C 171.333 273.959,171.015 273.725,170.625 273.520 C 170.235 273.315,169.560 272.929,169.125 272.662 C 168.690 272.395,168.333 272.225,168.333 272.284 C 168.333 272.343,168.134 272.210,167.890 271.987 C 167.646 271.765,167.507 271.696,167.581 271.833 C 167.655 271.971,167.553 271.915,167.353 271.710 C 167.154 271.505,166.806 271.291,166.580 271.234 C 166.354 271.178,166.200 271.080,166.239 271.018 C 166.277 270.957,165.883 270.689,165.362 270.423 C 164.842 270.158,164.285 269.830,164.125 269.694 C 163.965 269.559,163.832 269.516,163.831 269.599 C 163.829 269.682,163.766 269.651,163.689 269.531 C 163.613 269.410,163.437 269.295,163.298 269.274 C 163.160 269.254,162.918 269.109,162.762 268.952 C 162.605 268.795,162.369 268.667,162.238 268.667 C 162.107 268.667,162.000 268.594,162.000 268.505 C 162.000 268.416,161.875 268.392,161.723 268.450 C 161.550 268.516,161.486 268.490,161.554 268.381 C 161.614 268.284,161.442 268.114,161.170 268.001 C 160.899 267.889,160.591 267.693,160.485 267.565 C 160.379 267.438,160.186 267.333,160.056 267.333 C 159.926 267.333,159.661 267.186,159.468 267.006 C 159.274 266.826,159.057 266.715,158.986 266.759 C 158.914 266.803,158.662 266.647,158.426 266.411 C 158.190 266.175,157.923 266.028,157.832 266.084 C 157.741 266.140,157.667 266.107,157.667 266.010 C 157.667 265.913,157.554 265.833,157.417 265.833 C 157.279 265.833,157.167 265.756,157.167 265.663 C 157.167 265.490,156.361 265.089,156.120 265.141 C 156.049 265.157,155.947 265.057,155.894 264.918 C 155.841 264.780,155.690 264.667,155.559 264.667 C 155.427 264.667,155.158 264.517,154.962 264.333 C 154.765 264.150,154.476 264.000,154.320 264.000 C 154.163 264.000,153.991 263.883,153.936 263.739 C 153.881 263.596,153.760 263.526,153.668 263.583 C 153.576 263.640,153.500 263.607,153.500 263.510 C 153.500 263.413,153.390 263.333,153.256 263.333 C 153.123 263.333,152.879 263.195,152.715 263.026 C 152.551 262.856,152.173 262.613,151.875 262.485 C 151.577 262.357,151.333 262.191,151.333 262.116 C 151.333 262.041,151.260 262.025,151.171 262.081 C 151.082 262.136,150.881 262.032,150.725 261.849 C 150.568 261.666,150.379 261.555,150.304 261.602 C 150.228 261.648,150.167 261.602,150.167 261.500 C 150.167 261.398,150.092 261.360,150.000 261.417 C 149.908 261.473,149.833 261.440,149.833 261.343 C 149.833 261.246,149.721 261.167,149.583 261.167 C 149.446 261.167,149.333 261.109,149.333 261.038 C 149.333 260.913,148.208 260.246,148.013 260.254 C 147.960 260.257,147.767 260.128,147.583 259.969 C 147.400 259.809,147.191 259.679,147.119 259.679 C 147.047 259.679,146.869 259.560,146.724 259.414 C 146.579 259.269,146.241 259.107,145.974 259.053 C 145.707 259.000,145.530 258.915,145.581 258.864 C 145.718 258.726,142.954 257.175,142.772 257.288 C 142.686 257.341,142.664 257.306,142.723 257.210 C 142.784 257.111,142.549 256.923,142.180 256.775 C 141.821 256.631,141.477 256.431,141.415 256.330 C 141.352 256.229,141.139 256.077,140.942 255.993 C 140.745 255.908,140.283 255.653,139.917 255.424 C 138.742 254.694,138.667 254.653,138.667 254.751 C 138.667 254.803,138.499 254.690,138.295 254.500 C 138.091 254.310,137.753 254.111,137.545 254.059 C 137.337 254.007,137.167 253.893,137.167 253.805 C 137.167 253.718,137.100 253.688,137.017 253.739 C 136.935 253.790,136.825 253.719,136.773 253.582 C 136.720 253.445,136.525 253.333,136.339 253.333 C 136.152 253.333,136.000 253.258,136.000 253.167 C 136.000 253.075,135.887 253.000,135.750 253.000 C 135.612 253.000,135.500 252.925,135.500 252.833 C 135.500 252.742,135.412 252.667,135.305 252.667 C 135.197 252.667,134.991 252.560,134.846 252.430 C 134.702 252.300,134.476 252.168,134.345 252.138 C 134.214 252.108,133.968 251.971,133.798 251.833 C 133.628 251.696,133.435 251.585,133.370 251.588 C 133.304 251.590,133.116 251.478,132.953 251.338 C 132.790 251.198,132.610 251.108,132.555 251.139 C 132.499 251.170,132.407 251.120,132.350 251.028 C 132.293 250.935,132.138 250.835,132.006 250.805 C 131.874 250.775,131.590 250.581,131.375 250.375 C 131.027 250.040,130.754 249.920,130.621 250.042 C 130.596 250.065,130.397 249.917,130.179 249.714 C 129.961 249.511,129.719 249.385,129.640 249.433 C 129.562 249.481,129.453 249.404,129.398 249.261 C 129.343 249.117,129.156 249.000,128.982 249.000 C 128.809 249.000,128.667 248.937,128.667 248.860 C 128.667 248.783,128.498 248.633,128.292 248.526 C 128.085 248.419,127.617 248.143,127.250 247.912 C 126.883 247.682,126.471 247.446,126.333 247.388 C 126.196 247.330,125.952 247.170,125.792 247.032 C 125.631 246.894,125.500 246.836,125.500 246.903 C 125.500 246.969,125.381 246.905,125.237 246.760 C 125.092 246.615,124.912 246.535,124.837 246.581 C 124.763 246.627,124.654 246.542,124.597 246.392 C 124.539 246.242,124.448 246.163,124.395 246.216 C 124.342 246.270,124.144 246.170,123.957 245.996 C 123.770 245.821,123.553 245.718,123.475 245.766 C 123.397 245.814,123.333 245.774,123.333 245.677 C 123.333 245.579,123.253 245.500,123.156 245.500 C 123.058 245.500,122.720 245.304,122.406 245.064 C 122.091 244.824,121.833 244.687,121.833 244.759 C 121.833 244.832,121.665 244.741,121.458 244.557 C 120.928 244.084,119.792 243.458,119.919 243.708 C 119.977 243.823,119.918 243.787,119.788 243.628 C 119.657 243.469,119.502 243.387,119.442 243.447 C 119.382 243.507,119.333 243.468,119.333 243.361 C 119.333 243.254,119.181 243.167,118.995 243.167 C 118.809 243.167,118.613 243.054,118.560 242.917 C 118.508 242.779,118.360 242.667,118.232 242.667 C 118.104 242.667,118.000 242.604,118.000 242.527 C 118.000 242.383,117.166 241.924,116.978 241.964 C 116.920 241.977,116.740 241.840,116.577 241.660 C 116.415 241.480,116.211 241.333,116.125 241.333 C 116.039 241.333,115.750 241.178,115.484 240.989 C 115.218 240.799,115.000 240.700,115.000 240.768 C 115.000 240.836,114.813 240.715,114.583 240.500 C 114.354 240.285,114.166 240.178,114.164 240.263 C 114.163 240.347,114.106 240.333,114.039 240.230 C 113.972 240.127,113.504 239.830,113.000 239.570 C 112.496 239.310,112.005 238.995,111.910 238.870 C 111.815 238.745,111.664 238.667,111.574 238.697 C 111.484 238.726,111.229 238.581,111.007 238.375 C 110.785 238.169,110.476 238.000,110.320 238.000 C 110.163 238.000,109.991 237.883,109.936 237.739 C 109.881 237.596,109.760 237.526,109.668 237.583 C 109.576 237.640,109.500 237.602,109.500 237.500 C 109.500 237.398,109.425 237.360,109.333 237.417 C 109.242 237.473,109.167 237.440,109.167 237.343 C 109.167 237.246,109.058 237.167,108.925 237.167 C 108.792 237.167,108.607 237.035,108.513 236.875 C 108.420 236.715,108.341 236.637,108.338 236.703 C 108.336 236.769,108.060 236.638,107.727 236.412 C 107.393 236.185,107.018 236.000,106.893 236.000 C 106.769 236.000,106.667 235.927,106.667 235.838 C 106.667 235.618,105.801 235.194,105.542 235.287 C 105.427 235.328,105.333 235.238,105.333 235.087 C 105.333 234.937,105.268 234.854,105.189 234.903 C 105.110 234.952,104.912 234.846,104.750 234.667 C 104.588 234.488,104.390 234.381,104.311 234.430 C 104.232 234.480,104.167 234.452,104.167 234.370 C 104.167 234.223,103.562 233.887,103.269 233.870 C 103.187 233.866,103.059 233.762,102.983 233.639 C 102.907 233.517,102.787 233.417,102.714 233.416 C 102.642 233.416,102.335 233.239,102.032 233.023 C 101.729 232.807,101.436 232.676,101.380 232.731 C 101.325 232.786,101.174 232.680,101.045 232.496 C 100.916 232.312,100.741 232.204,100.655 232.257 C 100.570 232.310,100.500 232.292,100.500 232.217 C 100.500 232.142,100.342 231.982,100.149 231.861 C 99.859 231.680,99.818 231.680,99.912 231.863 C 99.974 231.984,99.918 231.953,99.788 231.794 C 99.657 231.635,99.502 231.554,99.442 231.614 C 99.382 231.673,99.333 231.647,99.333 231.555 C 99.333 231.462,99.034 231.244,98.669 231.068 C 98.303 230.893,98.003 230.696,98.002 230.630 C 98.001 230.564,97.875 230.558,97.723 230.617 C 97.549 230.684,97.486 230.657,97.555 230.546 C 97.688 230.331,97.214 230.121,96.943 230.276 C 96.837 230.337,96.807 230.324,96.876 230.248 C 97.020 230.089,95.711 229.170,95.333 229.165 C 95.196 229.163,94.907 228.975,94.691 228.748 C 94.476 228.520,94.239 228.372,94.164 228.418 C 94.089 228.464,94.003 228.442,93.973 228.369 C 93.900 228.195,92.636 227.424,92.418 227.420 C 92.326 227.418,92.079 227.267,91.870 227.083 C 91.660 226.900,91.435 226.764,91.370 226.782 C 91.304 226.799,91.081 226.655,90.875 226.461 C 90.669 226.267,90.500 226.164,90.500 226.233 C 90.500 226.301,90.382 226.239,90.238 226.095 C 90.094 225.951,89.869 225.833,89.738 225.833 C 89.607 225.833,89.500 225.746,89.500 225.639 C 89.500 225.532,89.455 225.490,89.399 225.546 C 89.343 225.601,89.144 225.504,88.957 225.329 C 88.770 225.154,88.553 225.051,88.475 225.099 C 88.397 225.147,88.333 225.126,88.332 225.052 C 88.329 224.745,87.486 224.509,87.380 224.785 M283.833 265.333 C 283.638 265.608,283.515 265.833,283.561 265.833 C 283.606 265.833,283.804 265.608,284.000 265.333 C 284.196 265.058,284.319 264.833,284.273 264.833 C 284.227 264.833,284.029 265.058,283.833 265.333 M237.468 330.625 C 237.174 330.967,236.954 331.333,237.042 331.333 C 237.076 331.333,237.270 331.108,237.474 330.833 C 237.875 330.290,237.872 330.155,237.468 330.625 " stroke="none" fill="#fcfcfc" fill-rule="evenodd"></path><path id="path3" d="M231.040 251.331 C 230.926 251.513,230.836 251.719,230.838 251.789 C 230.841 251.859,230.920 251.785,231.013 251.625 C 231.107 251.465,231.296 251.333,231.435 251.333 C 231.573 251.333,231.640 251.258,231.583 251.167 C 231.428 250.916,231.269 250.964,231.040 251.331 " stroke="none" fill="#dcdcdc" fill-rule="evenodd"></path><path id="path4" d="M199.911 152.375 C 199.778 152.728,199.742 270.000,199.875 270.000 C 199.944 270.000,200.000 243.520,200.000 211.155 L 200.000 152.311 200.375 152.416 C 200.669 152.499,200.696 152.484,200.500 152.347 C 200.169 152.115,200.006 152.123,199.911 152.375 " stroke="none" fill="#e4e4e4" fill-rule="evenodd"></path></g></svg>