<svg width="512" height="512" viewBox="0 0 512 512" fill="none" xmlns="http://www.w3.org/2000/svg">
  <circle cx="256" cy="256" r="248" fill="#1A1A1A" stroke="#E5E7EB" stroke-width="16"/>
  <path d="M256 120C188.8 120 134 174.8 134 242C134 309.2 188.8 364 256 364C323.2 364 378 309.2 378 242C378 174.8 323.2 120 256 120ZM256 344C199.8 344 154 298.2 154 242C154 185.8 199.8 140 256 140C312.2 140 358 185.8 358 242C358 298.2 312.2 344 256 344Z" fill="#E5E7EB"/>
  <circle cx="256" cy="242" r="40" fill="#E5E7EB"/>
  <path d="M256 162C217.4 162 186 193.4 186 232C186 270.6 217.4 302 256 302C294.6 302 326 270.6 326 232C326 193.4 294.6 162 256 162ZM256 282C228.4 282 206 259.6 206 232C206 204.4 228.4 182 256 182C283.6 182 306 204.4 306 232C306 259.6 283.6 282 256 282Z" fill="#E5E7EB"/>
  <path d="M200 242C200 211.1 225.1 186 256 186" stroke="#1A1A1A" stroke-width="12" stroke-linecap="round"/>
</svg> 